<?xml version="1.0" encoding="utf-8"?>
<!-- Generator: Adobe Illustrator 25.0.1, SVG Export Plug-In . SVG Version: 6.00 Build 0)  -->
<svg version="1.0" id="Layer_1" xmlns="http://www.w3.org/2000/svg" xmlns:xlink="http://www.w3.org/1999/xlink" x="0px" y="0px"
	 viewBox="0 0 249.7 150.5" style="enable-background:new 0 0 249.7 150.5;" xml:space="preserve">
<style type="text/css">
	.st0{fill:#1F3664;}
	.st1{fill:#12326E;}
	.st2{fill:#B2B2B2;}
	.st3{opacity:0.6;fill:url(#Silver_Shade_1_);enable-background:new    ;}
	.st4{fill:#27348B;}
	.st5{fill:url(#SVGID_1_);}
	.st6{fill:url(#SVGID_2_);}
	.st7{fill:url(#SVGID_3_);}
	.st8{fill:#E5C991;}
	.st9{fill:url(#Gold_Shade_1_);}
	.st10{opacity:0.6;}
	.st11{fill:#FFFFFF;}
	.st12{opacity:0.5;}
	.st13{fill:#413518;}
	.st14{fill:#1D1D1B;}
	.st15{fill:#F6F6F6;}
	.st16{fill:url(#SVGID_4_);}
	.st17{fill:#EDEDED;}
	.st18{fill:#E2E1E1;}
	.st19{fill:url(#SVGID_5_);}
	.st20{fill:#706F6F;}
	.st21{opacity:0.4;}
	.st22{fill:#918884;}
	.st23{fill:#E2DBD8;}
	.st24{fill:#C5BFBD;}
	.st25{fill:#3C3C3B;}
	.st26{fill:#3C3734;}
	.st27{fill:#E3E9EC;}
	.st28{fill:#B0A6A1;}
	.st29{fill:#2E2621;}
	.st30{fill:#E1D3CD;}
	.st31{fill:#B0A59C;}
	.st32{fill:#212A72;}
</style>
<g id="Layer_2">
	<g id="Layer_1-2">
		<path class="st0" d="M29.9,65.8V63c0.1-0.3-0.2-0.7-0.5-0.7c-0.2,0-0.3,0-0.5,0c-0.1,0-0.1,0-0.1-0.1s0.1-0.1,0.2-0.1h2.8
			c0.1,0,0.2,0,0.2,0.1s0,0.1-0.1,0.1c-0.1,0-0.2,0-0.3,0c-0.3,0-0.4,0.3-0.5,0.7s0,0.8,0,2.8v1.8c0,1.9,0.4,2.7,1,3.2
			c0.5,0.5,1.3,0.8,2,0.7c0.8,0,1.5-0.4,2-0.9c0.6-0.9,0.9-2.1,0.8-3.2V63c0-0.4-0.1-0.7-0.5-0.7c-0.1,0-0.3,0-0.5,0
			c0,0-0.1,0-0.1-0.1s0.1-0.1,0.2-0.1h2.5c0.1,0,0.2,0,0.2,0.1s-0.1,0.1-0.1,0.1c-0.1,0-0.2,0-0.3,0c-0.3,0.1-0.5,0.3-0.5,0.7
			c0,0.4,0,0.8,0,2.8v1.4c0,1.4-0.2,3-1.2,3.9c-0.8,0.7-1.8,1-2.8,0.9c-1,0-1.9-0.3-2.7-0.9c-0.9-0.9-1.3-2.2-1.2-3.4V65.8z"/>
		<path class="st0" d="M42.5,70.1c0,1.1,0.2,1.4,0.5,1.5c0.2,0,0.4,0.1,0.6,0.1c0.1,0,0.1,0,0.1,0.1s-0.1,0.1-0.2,0.1h-2.7
			c-0.1,0-0.2,0-0.2-0.1s0-0.1,0.1-0.1c0.2,0,0.4,0,0.5-0.1c0.3-0.1,0.4-0.5,0.4-1.7v-7.4c0-0.5,0-0.7,0.1-0.7
			c0.2,0,0.3,0.3,0.5,0.4s2.1,2.3,4.1,4.5c1.3,1.4,2.7,3,3.1,3.4l-0.1-6.6c0-0.8-0.1-1.1-0.5-1.2c-0.2,0-0.4-0.1-0.6-0.1
			c-0.1,0-0.1,0-0.1-0.1s0.1-0.1,0.3-0.1h2.5c0.1,0,0.2,0,0.2,0.1s0,0.1-0.1,0.1c-0.1,0-0.2,0-0.3,0c-0.4,0.1-0.5,0.4-0.5,1.2V71
			c0,0.8,0,0.9-0.1,0.9c-0.1,0-0.2-0.1-0.9-0.8c-0.1-0.1-2-2-3.4-3.5s-3-3.3-3.4-3.7L42.5,70.1z"/>
		<path class="st0" d="M55.9,68.1c0,1.2,0,2.3,0.1,2.8c0,0.4,0.1,0.7,0.5,0.7c0.2,0,0.5,0.1,0.6,0.1s0.1,0,0.1,0.1s-0.1,0.1-0.2,0.1
			H54c-0.1,0-0.2,0-0.2-0.1s0-0.1,0.1-0.1l0.4-0.1c0.3,0,0.3-0.3,0.4-0.7c0.1-0.6,0.1-1.6,0.1-2.8V63c0-0.4-0.2-0.7-0.5-0.7
			c-0.1,0-0.3,0-0.4-0.1c0,0-0.1,0-0.1-0.1S53.9,62,54,62h2.6c0.2,0,0.2,0,0.2,0.1s-0.1,0.1-0.1,0.1c-0.1,0-0.2,0-0.3,0
			c-0.4,0.1-0.5,0.3-0.5,0.7c0,0.4,0,0.8,0,2.8L55.9,68.1z"/>
		<path class="st0" d="M64.2,70.2C65,68.5,66.7,64,67,63c0.1-0.2,0.1-0.3,0.1-0.5c0-0.1-0.1-0.2-0.2-0.3c-0.2,0-0.3-0.1-0.5-0.1
			c-0.1,0-0.1,0-0.1-0.1s0.1-0.1,0.3-0.1h2.2c0.1,0,0.2,0,0.2,0.1s-0.1,0.1-0.2,0.1c-0.2,0-0.4,0-0.6,0.2c-0.2,0.1-0.4,0.3-0.7,1.2
			c-0.1,0.4-0.8,1.9-1.4,3.5c-0.8,1.9-1.4,3.3-1.7,3.9c-0.4,0.8-0.4,1-0.5,1s-0.2-0.2-0.5-0.8l-3.2-8c-0.3-0.7-0.5-0.9-0.9-1
			c-0.2,0-0.3,0-0.5,0c-0.1,0-0.1,0-0.1-0.1s0.1-0.1,0.3-0.1h2.8c0.2,0,0.3,0,0.3,0.1s0,0.1-0.1,0.1c-0.2,0-0.3,0-0.5,0.1
			c-0.1,0-0.2,0.1-0.2,0.3c0.1,0.4,0.2,0.7,0.3,1.1L64.2,70.2z"/>
		<path class="st0" d="M81.4,65.8V63c0.1-0.3-0.2-0.7-0.5-0.7c-0.1,0-0.3,0-0.4,0c-0.1,0-0.1,0-0.1-0.1s0.1-0.1,0.2-0.1h3
			c0.8-0.1,1.6,0.1,2.3,0.6c0.5,0.4,0.8,1.1,0.8,1.8c-0.1,1.2-0.6,2.3-1.6,3c1,1.4,1.9,2.5,2.7,3.3c0.4,0.5,0.9,0.8,1.6,0.9
			c0.2,0,0.3,0,0.5,0c0.1,0,0.1,0,0.1,0.1s-0.1,0.1-0.3,0.1h-0.9c-0.5,0-1,0-1.4-0.2c-0.7-0.5-1.3-1.2-1.8-1.9
			c-0.5-0.7-1.2-1.6-1.4-1.9c0-0.1-0.1-0.1-0.2-0.1h-1.6c-0.1,0-0.1,0-0.1,0.1v0.3c0,1.2,0,2.3,0.1,2.8c0,0.4,0.1,0.7,0.5,0.7
			c0.2,0,0.5,0.1,0.6,0.1s0.1,0,0.1,0.1s-0.1,0.1-0.2,0.1h-2.8c-0.2,0-0.2,0-0.2-0.1s0-0.1,0.1-0.1c0.1,0,0.3,0,0.4-0.1
			c0.3,0,0.3-0.3,0.4-0.7c0.1-0.6,0.1-1.6,0.1-2.8L81.4,65.8z M82.4,66.9c0,0.1,0,0.1,0.1,0.2c0.5,0.2,0.9,0.2,1.4,0.2
			c0.4,0,0.7-0.1,1-0.2c0.6-0.5,0.9-1.2,0.8-2c0-1.6-0.8-2.6-2.2-2.6c-0.3,0-0.6,0-0.9,0.1c-0.1,0-0.1,0.1-0.1,0.2L82.4,66.9z"/>
		<path class="st0" d="M91.4,71.7c-0.2-0.1-0.2-0.1-0.2-0.5c0-0.7,0-1.2,0.1-1.4s0-0.2,0.1-0.2s0.1,0,0.1,0.1c0,0.2,0,0.3,0,0.5
			c0.2,0.9,1.1,1.5,2,1.3c1,0.1,1.8-0.7,1.9-1.6v-0.1c0-0.9-0.4-1.4-1.5-2.3L93.3,67c-1.4-1.1-1.7-1.9-1.7-2.8
			c0-1.3,1.1-2.4,2.4-2.4c0.1,0,0.2,0,0.3,0c0.4,0,0.8,0,1.2,0.1c0.1,0,0.3,0.1,0.4,0.1c0.1,0,0.1,0,0.1,0.1s0,0.5,0,1.4
			c0,0.2,0,0.3-0.1,0.3s-0.1-0.1-0.1-0.2c0-0.2-0.1-0.4-0.2-0.7c-0.1-0.1-0.4-0.7-1.6-0.7c-0.8,0-1.5,0.6-1.6,1.4v0.1
			c0,0.8,0.4,1.2,1.6,2.2l0.4,0.3c1.6,1.2,1.9,2,1.9,3c0,0.9-0.4,1.6-1.1,2.2c-0.6,0.4-1.3,0.6-2,0.6C92.6,72,92,71.9,91.4,71.7z"/>
		<path class="st0" d="M101.7,68.1c0,1.2,0,2.3,0.1,2.8c0,0.4,0.1,0.7,0.5,0.7c0.2,0,0.5,0.1,0.6,0.1s0.1,0,0.1,0.1
			s-0.1,0.1-0.2,0.1h-2.8c-0.1,0-0.2,0-0.2-0.1s0-0.1,0.1-0.1c0.1,0,0.3,0,0.4-0.1c0.3,0,0.3-0.3,0.4-0.7c0.1-0.6,0.1-1.6,0.1-2.8
			V63c0-0.4-0.2-0.7-0.4-0.7c-0.1,0-0.3,0-0.4-0.1c0,0-0.1,0-0.1-0.1s0.1-0.1,0.2-0.1h2.6c0.1,0,0.2,0,0.2,0.1s0,0.1-0.1,0.1
			c-0.1,0-0.2,0-0.3,0c-0.3,0.1-0.4,0.3-0.5,0.7s0,0.8,0,2.8L101.7,68.1z"/>
		<path class="st0" d="M109.9,68.1c0,1.2,0,2.3,0.1,2.8c0,0.4,0.1,0.7,0.5,0.7c0.2,0,0.5,0.1,0.6,0.1s0.1,0,0.1,0.1
			s-0.1,0.1-0.2,0.1h-2.9c-0.1,0-0.2,0-0.2-0.1s0-0.1,0.1-0.1c0.1,0,0.3,0,0.4-0.1c0.2,0,0.3-0.3,0.4-0.7c0.1-0.6,0.1-1.6,0.1-2.8
			v-5.5h-1.9c-0.8,0-1.1,0.1-1.3,0.4c-0.1,0.1-0.2,0.3-0.2,0.4c0,0.1,0,0.1-0.1,0.1c0,0,0,0,0,0c0,0-0.1,0-0.1-0.1s0.3-1.2,0.3-1.3
			s0.1-0.2,0.1-0.2c0.2,0.1,0.4,0.1,0.6,0.2c0.4,0,0.9,0.1,1,0.1h4.9c0.4,0,0.9,0,1.3-0.1c0.1,0,0.1,0.1,0.1,0.2c0,0.4,0,1.3,0,1.4
			s0,0.2-0.1,0.2s-0.1,0-0.1-0.2v-0.1c-0.1-0.4-0.3-0.7-1.6-0.7h-1.6L109.9,68.1z"/>
		<path class="st0" d="M119.2,68.5c0-0.5-0.1-0.9-0.3-1.4c-0.1-0.2-1.8-3.1-2.3-3.7c-0.2-0.4-0.5-0.7-0.9-1
			c-0.2-0.1-0.4-0.2-0.6-0.2c-0.1,0-0.1,0-0.1-0.1s0.1-0.1,0.2-0.1h2.4c0.2,0,0.2,0,0.2,0.1s-0.1,0.1-0.2,0.1
			c-0.1,0-0.2,0.1-0.2,0.2c0,0.2,0.1,0.3,0.2,0.5c0.2,0.4,2.2,3.7,2.3,4.1c0.2-0.5,1.9-3.4,2.2-3.8c0.1-0.2,0.2-0.4,0.2-0.7
			c0-0.2,0-0.3-0.2-0.4s-0.2-0.1-0.2-0.1c0.1-0.1,0.1-0.1,0.2-0.1h2.1c0.1,0,0.2,0,0.2,0.1s-0.1,0.1-0.2,0.1c-0.2,0-0.4,0.1-0.6,0.2
			c-0.3,0.2-0.5,0.4-0.7,0.7c-0.9,1.4-1.7,2.8-2.5,4.2c-0.2,0.4-0.2,0.9-0.2,1.3V71c0,0.4,0.1,0.7,0.5,0.7c0.2,0,0.5,0,0.6,0
			s0.1,0,0.1,0.1s-0.1,0.1-0.2,0.1h-2.8c-0.2,0-0.2,0-0.2-0.1s0-0.1,0.1-0.1c0.1,0,0.3,0,0.4,0c0.2-0.1,0.4-0.3,0.4-0.7
			c0-0.6,0-1.1,0-1.3L119.2,68.5z"/>
		<path class="st0" d="M134.3,61.8c2.9,0,5.1,1.8,5.1,4.9c0.1,2.8-2.1,5.2-4.9,5.3h-0.3c-2.7,0.1-4.9-2-5-4.7c0-0.1,0-0.3,0-0.4
			c0-2.8,2.2-5,4.9-5.1C134.2,61.8,134.2,61.8,134.3,61.8L134.3,61.8z M134.6,71.5c1.2,0,3.6-0.7,3.6-4.4c0-3.1-1.9-4.8-4-4.8
			s-3.8,1.4-3.8,4.3C130.4,69.6,132.3,71.5,134.6,71.5z"/>
		<path class="st0" d="M143.1,65.8V63c0.1-0.3-0.2-0.7-0.5-0.7c0,0,0,0,0,0c-0.1,0-0.3,0-0.4,0c0,0-0.1,0-0.1-0.1s0.1-0.1,0.2-0.1
			h4.6c0.2,0,0.4,0,0.6,0c0.1,0,0.1-0.1,0.2-0.1s0.1,0,0.1,0.1s-0.1,0.2-0.1,0.6c0,0.3,0,0.6-0.1,0.8c-0.1,0.2,0,0.2-0.1,0.2
			c-0.1,0-0.1-0.1-0.1-0.2c0-0.2,0-0.3-0.1-0.5c-0.2-0.3-0.5-0.4-0.9-0.4h-2c-0.1,0-0.1,0-0.1,0.2v3.4c0,0.1,0,0.1,0.1,0.1h2.2
			c0.3,0,0.5-0.1,0.6-0.2c0.1-0.2,0.1-0.1,0.1-0.1s0.1,0,0.1,0.1s-0.1,0.3-0.1,0.7c0,0.3,0,0.8,0,0.9s0,0.2-0.1,0.2
			c-0.1,0-0.1,0-0.1-0.1c0-0.2,0-0.3-0.1-0.5c-0.1-0.3-0.4-0.5-0.7-0.5h-2c-0.1,0-0.1,0-0.1,0.1v1.1c0,1.2,0,2.3,0.1,2.8
			c0,0.4,0.1,0.7,0.5,0.7c0.2,0,0.5,0,0.6,0c0.1,0,0.1,0,0.1,0.1s-0.1,0.1-0.2,0.1h-2.8c-0.1,0-0.2,0-0.2-0.1s0-0.1,0.1-0.1
			c0.1,0,0.3,0,0.4,0c0.3-0.1,0.3-0.3,0.4-0.7c0.1-0.6,0.1-1.6,0.1-2.8L143.1,65.8z"/>
		<path class="st0" d="M158.9,68.1c0,1.2,0,2.3,0.1,2.8c0.1,0.4,0.1,0.7,0.5,0.7c0.2,0,0.5,0.1,0.6,0.1s0.1,0,0.1,0.1
			s-0.1,0.1-0.2,0.1H157c-0.1,0-0.2,0-0.2-0.1s0-0.1,0.1-0.1c0.1,0,0.3,0,0.4-0.1c0.3,0,0.3-0.3,0.4-0.7c0.1-0.6,0.1-1.6,0.1-2.8
			v-5.5h-1.9c-0.8,0-1.1,0.1-1.3,0.4c-0.1,0.1-0.1,0.3-0.2,0.4s-0.1,0.1-0.1,0.1s-0.1,0-0.1-0.1s0.3-1.2,0.3-1.3s0.1-0.2,0.1-0.2
			c0.2,0.1,0.4,0.1,0.6,0.2c0.4,0,0.9,0.1,1,0.1h4.9c0.4,0,0.9,0,1.3-0.1c0.1,0,0.1,0.1,0.1,0.2c0,0.4,0,1.3,0,1.4s0,0.2-0.1,0.2
			s-0.1,0-0.1-0.2v-0.1c-0.1-0.4-0.4-0.7-1.6-0.7h-1.6L158.9,68.1z"/>
		<path class="st0" d="M173.7,68.1c0,1.2,0,2.3,0.1,2.8c0,0.4,0.1,0.7,0.5,0.7c0.2,0,0.5,0.1,0.6,0.1s0.1,0,0.1,0.1
			s-0.1,0.1-0.2,0.1h-2.8c-0.1,0-0.2,0-0.2-0.1s0-0.1,0.1-0.1c0.1,0,0.3,0,0.4-0.1c0.3,0,0.3-0.3,0.4-0.7c0.1-0.6,0.1-1.6,0.1-2.8
			v-1.4c0,0,0-0.1-0.1-0.1h-5.5c0,0-0.1,0-0.1,0.1v1.4c0,1.2,0,2.3,0.1,2.8c0,0.4,0.1,0.7,0.5,0.7c0.2,0,0.5,0.1,0.6,0.1
			s0.1,0,0.1,0.1s-0.1,0.1-0.2,0.1h-2.8c-0.1,0-0.2,0-0.2-0.1s0-0.1,0.1-0.1c0.1,0,0.3,0,0.4-0.1c0.3,0,0.3-0.3,0.4-0.7
			c0.1-0.6,0.1-1.6,0.1-2.8V63c0-0.4-0.1-0.7-0.6-0.7c-0.1,0-0.3,0-0.4,0c-0.1,0-0.1,0-0.1-0.1s0.1-0.1,0.2-0.1h2.7
			c0.1,0,0.2,0,0.2,0.1s0,0.1-0.1,0.1c-0.1,0-0.2,0-0.3,0c-0.4,0.1-0.4,0.3-0.5,0.7s0,0.8,0,2.8V66c0,0,0,0.1,0.1,0.1h5.5
			c0,0,0.1,0,0.1-0.1V63c0.1-0.3-0.2-0.7-0.5-0.7c0,0,0,0,0,0c-0.1,0-0.3,0-0.4,0c-0.1,0-0.1,0-0.1-0.1s0.1-0.1,0.2-0.1h2.7
			c0.1,0,0.2,0,0.2,0.1s-0.1,0.1-0.1,0.1h-0.3c-0.4,0.1-0.4,0.3-0.5,0.7s0,0.8,0,2.8L173.7,68.1z"/>
		<path class="st0" d="M178.7,65.8V63c0.1-0.3-0.2-0.7-0.5-0.7c0,0,0,0,0,0c-0.1,0-0.3,0-0.4,0c-0.1,0-0.1,0-0.1-0.1
			s0.1-0.1,0.2-0.1h4.4c0.2,0,0.4,0,0.6-0.1c0.1,0,0.1-0.1,0.2-0.1s0,0,0,0.1s-0.1,0.2-0.1,0.6c0,0.3,0,0.6-0.1,0.8
			c-0.1,0.2,0,0.2-0.1,0.2s-0.1-0.1-0.1-0.2c0-0.2,0-0.3-0.1-0.5c-0.1-0.2-0.2-0.4-0.9-0.4h-1.8c-0.1,0-0.1,0-0.1,0.1v3.5
			c0,0.1,0,0.1,0.1,0.1h2.1c0.2,0,0.4,0,0.6-0.2c0.1-0.1,0.1-0.2,0.2-0.2s0.1,0,0.1,0.1s-0.1,0.3-0.1,0.7c0,0.3,0,0.7,0,0.8
			s0,0.2-0.1,0.2s-0.1,0-0.1-0.1c0-0.1,0-0.3-0.1-0.4c-0.1-0.2-0.2-0.4-0.7-0.5c-0.6-0.1-1.2-0.1-1.9-0.1c0,0-0.1,0-0.1,0.1
			c0,0,0,0,0,0v3.3c0,0.9,0.2,1.1,1.5,1.1c0.4,0,0.8,0,1.2-0.2c0.3-0.1,0.5-0.4,0.6-0.9c0-0.1,0-0.2,0.1-0.2s0.1,0.1,0.1,0.2
			s-0.1,1-0.2,1.3s-0.2,0.3-0.7,0.3c-2,0-2.8-0.1-3.2-0.1H178c-0.1,0-0.2,0-0.2-0.1s0-0.1,0.1-0.1c0.1,0,0.3,0,0.4-0.1
			c0.3,0,0.3-0.3,0.4-0.7c0.1-0.6,0.1-1.6,0.1-2.8L178.7,65.8z"/>
		<path class="st0" d="M40.7,87.8L40.7,87.8c0.5-1.4,1.9-6,2.5-8c0.1-0.3,0.2-0.7,0.2-1c0-0.3-0.2-0.5-0.9-0.5c-0.1,0-0.1,0-0.1-0.1
			l0,0c0-0.1,0.1-0.1,0.3-0.1c0.8,0,1.5,0,1.6,0c0.1,0,0.8,0,1.3,0c0.1,0,0.2,0,0.2,0.1s0,0.1-0.1,0.1c-0.2,0-0.4,0-0.5,0.1
			c-0.5,0.2-0.7,0.8-1,1.7c-0.7,2-2.3,7-2.9,8.7c-0.4,1.2-0.5,1.3-0.6,1.3c-0.2,0-0.2-0.2-0.5-0.8l-3-8.7l0,0
			c-0.6,1.5-2.7,7.3-3.3,8.7c-0.2,0.7-0.3,0.8-0.5,0.8c-0.2,0-0.2-0.2-0.5-1.2l-2.8-9.3c-0.2-0.8-0.5-1.1-0.9-1.2
			c-0.2-0.1-0.5-0.1-0.7-0.1c-0.1,0-0.1,0-0.1-0.1s0.1-0.1,0.2-0.1c0.8,0,1.7,0,1.9,0s0.8,0,1.6,0c0.2,0,0.3,0,0.3,0.1
			s-0.1,0.1-0.1,0.1c-0.2,0-0.4,0-0.6,0.1c-0.1,0.1-0.2,0.2-0.2,0.4c0.1,0.5,0.2,1,0.3,1.4c0.2,1,1.9,6.7,2.1,7.6h0.1l3.3-8.9
			c0.2-0.6,0.3-0.7,0.4-0.7s0.2,0.2,0.4,0.7L40.7,87.8z"/>
		<path class="st0" d="M49.9,85.5c0,1.5,0,2.7,0.1,3.4c0,0.5,0.1,0.8,0.6,0.9c0.2,0,0.5,0.1,0.7,0.1c0.1,0,0.1,0,0.1,0.1
			S51.4,90,51.2,90c-0.9,0-1.8,0-1.9,0c-0.1,0-1.1,0-1.6,0c-0.2,0-0.2,0-0.2-0.1s0-0.1,0.1-0.1c0.2,0,0.3,0,0.5-0.1
			c0.3-0.1,0.4-0.4,0.5-0.9c0.1-0.7,0.1-1.9,0.1-3.4v-6.1c0-0.5-0.2-0.8-0.5-0.9c-0.2,0-0.3-0.1-0.5-0.1c-0.1,0-0.1,0-0.1-0.1
			s0.1-0.1,0.2-0.1c0.5,0,1.5,0,1.6,0s1.1,0,1.6,0c0.2,0,0.2,0,0.2,0.1s-0.1,0.1-0.1,0.1c-0.1,0-0.3,0-0.4,0
			c-0.4,0.1-0.5,0.3-0.6,0.9c0,0.5,0,0.9,0,3.4L49.9,85.5z"/>
		<path class="st0" d="M58.7,85.5c0,1.5,0,2.7,0.1,3.4c0,0.5,0.1,0.8,0.6,0.9c0.2,0,0.5,0.1,0.7,0.1c0.1,0,0.1,0,0.1,0.1
			S60.1,90,59.9,90c-0.9,0-1.8,0-1.9,0s-1.1,0-1.6,0c-0.2,0-0.2,0-0.2-0.1s0-0.1,0.1-0.1c0.2,0,0.3,0,0.5-0.1
			c0.3-0.1,0.4-0.4,0.5-0.9c0.1-0.7,0.1-1.9,0.1-3.4v-6.6H55c-1,0-1.3,0.1-1.6,0.5c-0.1,0.2-0.2,0.3-0.3,0.5C53.1,80,53,80,53,80
			s-0.1,0-0.1-0.1s0.3-1.5,0.3-1.6c0-0.1,0.1-0.3,0.2-0.3c0.2,0.1,0.4,0.1,0.7,0.2c0.5,0,1,0.1,1.2,0.1h5.9c0.5,0,1.1-0.1,1.6-0.2
			c0.1,0,0.1,0.1,0.1,0.2c0,0.5,0,1.6,0,1.7s0,0.2-0.1,0.2s-0.1,0-0.1-0.3v-0.2c-0.1-0.5-0.4-0.8-1.9-0.9h-2L58.7,85.5z"/>
		<path class="st0" d="M76.5,87.8L76.5,87.8c0.5-1.4,1.9-6,2.5-8c0.1-0.3,0.2-0.7,0.2-1c0-0.3-0.2-0.5-0.9-0.5c-0.1,0-0.1,0-0.1-0.1
			l0,0c0-0.1,0.1-0.1,0.3-0.1c0.8,0,1.5,0,1.6,0s0.8,0,1.3,0c0.1,0,0.2,0,0.2,0.1s-0.1,0.1-0.1,0.1c-0.2,0-0.4,0-0.5,0.1
			c-0.5,0.2-0.7,0.8-1,1.7c-0.7,2-2.3,7-2.9,8.7c-0.4,1.2-0.5,1.3-0.7,1.3c-0.2,0-0.3-0.2-0.5-0.8l-3-8.7l0,0
			c-0.6,1.5-2.7,7.3-3.3,8.7c-0.2,0.7-0.3,0.8-0.5,0.8c-0.2,0-0.2-0.2-0.5-1.2l-2.8-9.3c-0.2-0.8-0.4-1.1-0.9-1.2
			c-0.2-0.1-0.5-0.1-0.7-0.1c-0.1,0-0.1,0-0.1-0.1s0.1-0.1,0.3-0.1c0.8,0,1.7,0,1.8,0c0.2,0,0.8,0,1.6,0c0.2,0,0.3,0,0.3,0.1
			s-0.1,0.1-0.2,0.1c-0.2,0-0.4,0-0.6,0.1C67,78.5,67,78.7,67,78.8c0.1,0.5,0.2,1,0.3,1.4c0.2,1,1.8,6.7,2.1,7.6l0,0l3.3-8.9
			c0.2-0.6,0.3-0.7,0.4-0.7c0.1,0,0.2,0.2,0.4,0.7L76.5,87.8z"/>
		<path class="st0" d="M85.4,78.5c0.2-0.5,0.2-0.6,0.3-0.6s0.2,0.1,0.3,0.6s2.7,7,3.7,9.4c0.6,1.4,1,1.7,1.3,1.7
			c0.2,0.1,0.4,0.1,0.6,0.1c0.1,0,0.2,0,0.2,0.1s-0.1,0.1-0.3,0.1h-2.5c-0.3,0-0.5,0-0.5-0.1s0-0.1,0.1-0.1c0.1,0,0.2-0.2,0.1-0.4
			l-1.4-3.8c0-0.1-0.1-0.1-0.1-0.1h-3.4c-0.1,0-0.1,0.1-0.2,0.1l-1,2.8c-0.1,0.3-0.2,0.7-0.2,1c0,0.3,0.3,0.4,0.6,0.4h0.2
			c0.1,0,0.2,0,0.2,0.1s-0.1,0.1-0.2,0.1c-0.4,0-1,0-1.2,0c-0.2,0-1,0-1.8,0c-0.2,0-0.3,0-0.3-0.1s0.1-0.1,0.1-0.1h0.5
			c0.7-0.1,1-0.7,1.3-1.5L85.4,78.5z M87.1,84.8c0.1,0,0.1,0,0.1-0.1l-1.5-4.2c-0.1-0.2-0.2-0.2-0.2,0L84,84.7c0,0.1,0,0.1,0,0.1
			H87.1z"/>
		<path class="st0" d="M97,85.5c0,1.5,0,2.7,0.1,3.4c0,0.5,0.2,0.8,0.6,0.9c0.2,0,0.5,0.1,0.7,0.1c0.1,0,0.1,0,0.1,0.1
			S98.4,90,98.2,90c-0.9,0-1.8,0-1.9,0s-1.1,0-1.6,0c-0.2,0-0.3,0-0.3-0.1s0-0.1,0.1-0.1c0.2,0,0.3,0,0.5-0.1
			c0.3-0.1,0.4-0.4,0.4-0.9c0.1-0.7,0.1-1.9,0.1-3.4v-6.6h-2.3c-1,0-1.3,0.1-1.6,0.5c-0.1,0.2-0.2,0.3-0.3,0.5
			c0,0.1-0.1,0.2-0.2,0.2s-0.1,0-0.1-0.1s0.3-1.5,0.3-1.6s0.1-0.3,0.2-0.3c0.2,0.1,0.5,0.2,0.7,0.2c0.4,0,1,0.1,1.2,0.1h5.9
			c0.5,0,1-0.1,1.6-0.2c0.1,0,0.1,0.1,0.1,0.2c0,0.5-0.1,1.6-0.1,1.7s0,0.2-0.1,0.2s-0.1,0-0.1-0.3v-0.2c-0.1-0.5-0.4-0.8-1.9-0.9
			h-2L97,85.5z"/>
		<path class="st0" d="M104.9,82.9v-3.4c0.1-0.4-0.2-0.8-0.6-0.9c0,0,0,0,0,0c-0.2,0-0.4,0-0.6,0c-0.1,0-0.1,0-0.1-0.1
			s0.1-0.1,0.3-0.1c0.7,0,1.7,0,1.8,0h5.5c0.2,0,0.5,0,0.7-0.1c0.1,0,0.1-0.1,0.2-0.1s0.1,0.1,0.1,0.1s-0.1,0.3-0.1,0.7
			c0,0.2,0,0.8-0.1,1s0,0.2-0.1,0.2s-0.1-0.1-0.1-0.2c0-0.2,0-0.4-0.1-0.6c-0.1-0.2-0.3-0.4-1.1-0.5l-4-0.1c-0.1,0-0.1,0.1-0.1,0.2
			v4.3c0,0.1,0,0.2,0.1,0.2h3.4c0.3,0,0.5,0,0.7-0.2c0.1-0.2,0.2-0.2,0.2-0.2s0.1,0,0.1,0.1s-0.1,0.3-0.1,0.9c0,0.3-0.1,0.9-0.1,1
			s0,0.3-0.1,0.3s-0.1-0.1-0.1-0.1c0-0.2,0-0.4-0.1-0.5c-0.1-0.2-0.2-0.5-0.8-0.6c-0.4-0.1-2.9-0.1-3.1-0.1c-0.1,0-0.1,0-0.1,0.1
			c0,0,0,0,0,0l0,0v4c0,1.1,0.6,1.3,3.7,1.3c0.5,0,1,0,1.5-0.2c0.4-0.2,0.6-0.5,0.7-1.1c0-0.2,0.1-0.2,0.1-0.2s0.1,0.1,0.1,0.2
			c0,0.5-0.1,1-0.2,1.5c-0.1,0.4-0.2,0.4-0.8,0.4c-2.3,0-5.3-0.1-5.8-0.1c-0.1,0-1.1,0-1.6,0c-0.2,0-0.2,0-0.2-0.1s0-0.1,0.1-0.1
			c0.2,0,0.3,0,0.5-0.1c0.3-0.1,0.4-0.4,0.4-0.9c0.1-0.7,0.1-1.9,0.1-3.4L104.9,82.9z"/>
		<path class="st0" d="M116,82.7v-3.4c0-0.5-0.2-0.8-0.7-0.9c-0.2,0-0.4,0-0.5,0c-0.1,0-0.1,0-0.1-0.1s0.1-0.1,0.2-0.1
			c0.7,0,1.7,0,1.8,0s1.4,0,1.8,0c1-0.1,2,0.2,2.9,0.7c0.7,0.5,1.1,1.3,1.1,2.1c-0.1,1.4-0.8,2.7-1.9,3.6c1.3,1.7,2.3,3,3.3,4
			s1.3,1.1,1.7,1.1c0.2,0,0.3,0,0.5,0c0.1,0,0.1,0,0.1,0.1S126,90,125.7,90h-0.8c-0.6,0.1-1.2,0-1.7-0.3c-0.8-0.6-1.6-1.4-2.1-2.3
			c-0.7-0.9-1.4-1.9-1.7-2.3c0-0.1-0.1-0.1-0.2-0.1h-1.9c-0.1,0-0.1,0-0.1,0.1v0.4c0,1.5,0,2.7,0.1,3.4c0,0.5,0.1,0.8,0.6,0.9
			c0.2,0,0.5,0.1,0.7,0.1c0.1,0,0.1,0,0.1,0.1s-0.1,0.1-0.2,0.1c-0.9,0-1.8-0.1-1.9-0.1s-1,0.1-1.5,0.1c-0.2,0-0.2,0-0.2-0.1
			s0-0.1,0.1-0.1c0.2,0,0.3,0,0.5-0.1c0.3-0.1,0.4-0.4,0.5-0.9c0.1-0.7,0.1-1.9,0.1-3.4V82.7z M117.2,84.1c0,0.1,0,0.2,0.1,0.2
			c0.5,0.2,1.1,0.3,1.6,0.2c0.4,0,0.8-0.1,1.2-0.3c0.7-0.6,1.1-1.5,1-2.4c0-2-1-3.1-2.7-3.1c-0.3,0-0.7,0-1,0.1
			c-0.1,0-0.1,0.1-0.1,0.2L117.2,84.1z"/>
		<path class="st0" d="M127.1,89.8c-0.3-0.1-0.3-0.2-0.3-0.6c0-0.6,0-1.1,0.1-1.7c0-0.2,0.1-0.2,0.2-0.2s0.2,0,0.2,0.2
			c0,0.2,0,0.4,0.1,0.6c0.3,1.2,1.4,1.6,2.8,1.6c2,0,2.5-1.1,2.5-2.1s-0.6-1.8-2.4-2.9l-1-0.6c-2.2-1.4-2.8-2.2-2.8-3.3
			c0-1.7,1.6-2.8,4.2-2.8c0.6,0,1.1,0,1.7,0.2c0.3,0.1,0.5,0.1,0.8,0.1c0.2,0,0.2,0,0.2,0.1c-0.1,0.6-0.1,1.1-0.1,1.7
			c0,0.2,0.1,0.4,0,0.4c-0.1,0-0.3-0.1-0.3-0.2c0-0.3-0.1-0.5-0.3-0.8c-0.1-0.2-0.4-0.8-2.4-0.8c-1.5,0-2.4,0.7-2.4,1.8
			c0,0.9,0.4,1.5,2.4,2.7l0.6,0.3c2.5,1.5,3.2,2.3,3.2,3.6c-0.1,1.1-0.8,2.1-1.8,2.6c-0.8,0.5-1.7,0.7-2.7,0.7
			C128.7,90.2,127.8,90.1,127.1,89.8z"/>
		<path class="st0" d="M137.1,82.7v-3.4c0.1-0.4-0.2-0.8-0.6-0.9c0,0,0,0,0,0c-0.2,0-0.4,0-0.5,0c-0.1,0-0.1,0-0.1-0.1
			s0.1-0.1,0.2-0.1c0.7,0,1.7,0,1.8,0c0.1,0,1.4,0,1.8,0c1-0.1,2,0.2,2.9,0.7c0.7,0.5,1.1,1.3,1.1,2.1c-0.1,1.4-0.8,2.7-1.9,3.6
			c1.3,1.7,2.4,3,3.2,4c0.5,0.6,1.2,1,2,1.1c0.2,0,0.4,0,0.6,0c0.1,0,0.1,0,0.1,0.1s-0.1,0.1-0.4,0.1h-1.1c-0.6,0.1-1.2,0-1.7-0.3
			c-0.8-0.6-1.6-1.4-2.1-2.3c-0.7-0.9-1.4-1.9-1.7-2.3c0-0.1-0.1-0.1-0.2-0.1h-2c-0.1,0-0.1,0-0.1,0.1v0.4c0,1.5,0,2.7,0.1,3.4
			c0.1,0.5,0.1,0.8,0.6,0.9c0.2,0,0.5,0.1,0.7,0.1c0.1,0,0.1,0,0.1,0.1s-0.1,0.1-0.2,0.1c-0.9,0-1.8-0.1-1.9-0.1s-1,0.1-1.5,0.1
			c-0.2,0-0.2,0-0.2-0.1s0-0.1,0.1-0.1c0.2,0,0.3,0,0.5-0.1c0.3-0.1,0.4-0.4,0.4-0.9c0.1-0.7,0.1-1.9,0.1-3.4L137.1,82.7z
			 M138.3,84.1c0,0.1,0,0.2,0.1,0.2c0.5,0.2,1.1,0.3,1.6,0.2c0.4,0,0.8-0.1,1.2-0.3c0.7-0.6,1.1-1.5,1-2.4c0-2-1-3.1-2.7-3.1
			c-0.3,0-0.7,0-1,0.1c-0.1,0-0.1,0.1-0.1,0.2L138.3,84.1z"/>
		<path class="st0" d="M151.9,78.5c0.2-0.5,0.2-0.6,0.3-0.6c0.1,0,0.2,0.1,0.3,0.6c0.2,0.5,2.7,7,3.6,9.4c0.6,1.4,1,1.7,1.4,1.7
			c0.2,0.1,0.4,0.1,0.6,0.1c0.1,0,0.2,0,0.2,0.1s-0.1,0.1-0.3,0.1h-2.4c-0.3,0-0.5,0-0.5-0.1s0-0.1,0.1-0.1s0.2-0.2,0.1-0.4
			l-1.4-3.8c0-0.1-0.1-0.1-0.1-0.1h-3.3c-0.1,0-0.1,0.1-0.2,0.1l-0.9,2.8c-0.1,0.3-0.2,0.7-0.2,1c0,0.3,0.3,0.4,0.6,0.4h0.2
			c0.1,0,0.2,0,0.2,0.1s-0.1,0.1-0.2,0.1c-0.4,0-1,0-1.2,0s-1,0-1.8,0c-0.2,0-0.3,0-0.3-0.1s0.1-0.1,0.1-0.1h0.4
			c0.7-0.1,1-0.7,1.3-1.5L151.9,78.5z M153.5,84.8c0.1,0,0.1,0,0.1-0.1l-1.5-4.2c-0.1-0.2-0.2-0.2-0.2,0l-1.4,4.2
			c0,0.1,0,0.1,0.1,0.1H153.5z"/>
		<path class="st0" d="M161.2,87.9c0,1.3,0.2,1.7,0.6,1.8c0.3,0.1,0.5,0.1,0.8,0.1c0.1,0,0.1,0,0.1,0.1s-0.1,0.1-0.3,0.1
			c-0.9,0-1.5,0-1.7,0s-0.8,0-1.5,0c-0.1,0-0.2,0-0.2-0.1s0.1-0.1,0.1-0.1c0.2,0,0.4,0,0.6-0.1c0.4-0.1,0.5-0.6,0.5-2v-9
			c0-0.6,0.1-0.8,0.2-0.8s0.4,0.3,0.5,0.5s2.6,2.8,5,5.4c1.6,1.7,3.2,3.6,3.8,4.1l-0.2-7.9c0-1-0.1-1.4-0.6-1.5
			c-0.3-0.1-0.5-0.1-0.8-0.1c-0.1,0-0.1,0-0.1-0.1s0.1-0.1,0.3-0.1c0.7,0,1.5,0,1.6,0s0.7,0,1.3,0c0.2,0,0.3,0,0.3,0.1
			s-0.1,0.1-0.2,0.1c-0.1,0-0.2,0-0.4,0c-0.5,0.1-0.6,0.4-0.6,1.4v9.2c0,1,0,1.1-0.1,1.1s-0.3-0.2-1.1-1c-0.2-0.2-2.4-2.5-4.1-4.2
			c-1.8-1.9-3.6-3.9-4.1-4.5L161.2,87.9z"/>
		<path class="st0" d="M174.7,82.7v-3.4c0-0.5-0.1-0.8-0.7-0.9c-0.2,0-0.4,0-0.5,0c-0.1,0-0.1,0-0.1-0.1s0.1-0.1,0.2-0.1
			c0.7,0,1.7,0,1.8,0s1.2,0,2.1,0c1.6,0,4.4-0.1,6.3,1.8c1,1.1,1.6,2.5,1.5,4c0,1.6-0.6,3.2-1.7,4.4c-1.3,1.2-3,1.9-4.7,1.8
			c-1.4,0-3.3-0.2-3.5-0.2s-1.1,0-1.6,0c-0.2,0-0.2,0-0.2-0.1s0-0.1,0.1-0.1c0.2,0,0.3,0,0.5-0.1c0.3-0.1,0.4-0.4,0.4-0.9
			c0.1-0.7,0.1-1.9,0.1-3.4L174.7,82.7z M176,84.4v3.4c0,0.4,0,0.8,0.2,1.2c0.2,0.3,0.8,0.6,2.7,0.6c1.4,0,2.7-0.5,3.7-1.4
			c0.9-1,1.3-2.4,1.2-3.8c0-1.4-0.5-2.9-1.5-3.9c-1.5-1.6-3.3-1.8-5.1-1.8c-0.3,0-0.7,0-1,0.1c-0.1,0.1-0.2,0.2-0.2,0.3v3.3
			L176,84.4z"/>
		<path class="st1" d="M185.2,88.8c0.1-0.5,0.5-0.8,1-0.8c0.1,0,0.1,0,0.3,0.3c0.1,0.2,0.2,0.4,0.3,0.7c0,0.2-0.1,0.4-0.2,0.6
			c-0.3,0.6-0.6,1.2-1,1.7c0,0.1-0.1,0.1-0.2,0.1c-0.1,0-0.1-0.1-0.1-0.1c0-0.1,0.1-0.2,0.1-0.2c0.2-0.3,0.3-0.7,0.4-1.1
			C185.7,89.2,185.2,89,185.2,88.8z"/>
		<path class="st0" d="M71.8,65.8V63c0.1-0.3-0.2-0.7-0.5-0.7c0,0,0,0,0,0c-0.1,0-0.3,0-0.4,0c-0.1,0-0.1,0-0.1-0.1s0.1-0.1,0.2-0.1
			c0.6,0,1.4,0,1.5,0h4.5c0.2,0,0.4,0,0.6-0.1c0.1,0,0.1-0.1,0.2-0.1c0.1,0,0.1,0,0.1,0.1s-0.1,0.2-0.1,0.6c0,0.3,0,0.6-0.1,0.9
			c-0.1,0.2,0,0.2-0.1,0.2c-0.1,0-0.1-0.1-0.1-0.2c0-0.2,0-0.3-0.1-0.5c-0.1-0.2-0.2-0.4-0.9-0.4h-3.4c-0.1,0-0.1,0-0.1,0.1v3.5
			c0,0.1,0,0.1,0.1,0.1h2.8c0.2,0.1,0.5,0,0.6-0.1c0.1-0.1,0.1-0.2,0.2-0.2s0.1,0,0.1,0.1c0,0.2-0.1,0.5-0.1,0.7
			c0,0.3-0.1,0.7-0.1,0.8s0,0.2-0.1,0.2c-0.1,0-0.1,0-0.1-0.1c0-0.1,0-0.3,0-0.4c0-0.2-0.2-0.4-0.7-0.5c-0.3,0-2.3-0.1-2.6-0.1
			c-0.1,0-0.1,0-0.1,0.1v3.4c0,0.9,0.5,1.1,3.1,1.1c0.4,0,0.8,0,1.2-0.2c0.3-0.1,0.5-0.4,0.6-0.9c0-0.2,0.1-0.2,0.1-0.2
			c0.1,0,0.1,0.1,0.1,0.2c0,0.4-0.1,0.8-0.2,1.2c-0.1,0.3-0.2,0.3-0.7,0.3c-2,0-4.4-0.1-4.8-0.1h-1.3c-0.1,0-0.2,0-0.2-0.1
			s0-0.1,0.1-0.1c0.1,0,0.3,0,0.4,0c0.3,0,0.3-0.3,0.4-0.7c0.1-0.6,0.1-1.6,0.1-2.8L71.8,65.8z"/>
		<path class="st0" d="M64.8,103.2c0,2.1,0,3-0.4,3.9c-0.5,0.8-1.2,1.5-2,2c-0.2,0.1-0.3,0.2-0.5,0.3c0,0-0.1,0-0.1,0
			c0,0-0.1,0-0.1-0.1c0,0,0,0,0,0l0,0c0-0.1,0.1-0.1,0.2-0.2c0.2-0.1,0.3-0.2,0.5-0.4c0.9-0.9,1.3-1.6,1.3-5v-6.6
			c0.1-0.4-0.2-0.7-0.6-0.8c-0.1,0-0.3,0-0.5,0c-0.1,0-0.1,0-0.1-0.1c0-0.1,0.1-0.1,0.2-0.1h2.8c0.1,0,0.2,0,0.2,0.1
			c0,0.1-0.1,0.1-0.1,0.1c-0.1,0-0.2,0-0.3,0c-0.3,0.1-0.5,0.3-0.5,0.8c0,0.5,0,0.8,0,2.9L64.8,103.2z"/>
		<path class="st0" d="M73,96c3,0,5.2,1.9,5.2,5c0.1,2.9-2.1,5.3-4.9,5.4c0,0,0,0-0.1,0h-0.3c-2.8,0.1-5-2.1-5.1-4.9
			c0-0.1,0-0.2,0-0.3c-0.1-2.8,2.2-5.2,5-5.2c0,0,0,0,0.1,0H73z M73.3,105.9c1.2,0,3.7-0.7,3.7-4.5c0-3.1-1.9-4.9-4-4.9
			s-3.9,1.4-3.9,4.3C69,103.9,70.9,105.9,73.3,105.9z"/>
		<path class="st0" d="M89.6,102.4c0,1.3,0,2.3,0.1,2.9s0.1,0.7,0.5,0.7c0.2,0,0.4,0,0.6,0.1c0.1,0,0.1,0,0.1,0.1s-0.1,0.1-0.2,0.1
			h-2.9c-0.2,0-0.2,0-0.2-0.1s0-0.1,0.1-0.1c0.1,0,0.3,0,0.4-0.1c0.3,0,0.3-0.4,0.4-0.7c0.1-0.6,0.1-1.6,0.1-2.9V101
			c0,0,0-0.1,0-0.1c0,0,0,0,0,0h-5.6c0,0-0.1,0-0.1,0.1l0,0v1.4c0,1.3,0,2.3,0.1,2.9c0.1,0.5,0.1,0.7,0.5,0.7c0.2,0,0.4,0,0.6,0.1
			c0.1,0,0.1,0,0.1,0.1s-0.1,0.1-0.2,0.1h-2.9c-0.1,0-0.2,0-0.2-0.1s0-0.1,0.1-0.1c0.1,0,0.3,0,0.4-0.1c0.3,0,0.3-0.4,0.4-0.7
			c0.1-0.6,0.1-1.6,0.1-2.9v-5.2c0.1-0.4-0.2-0.7-0.6-0.8c-0.1,0-0.3,0-0.4,0c-0.1,0-0.1,0-0.1-0.1c0-0.1,0.1-0.1,0.2-0.1h2.8
			c0.1,0,0.2,0,0.2,0.1c0,0.1-0.1,0.1-0.1,0.1c-0.1,0-0.2,0-0.3,0c-0.4,0.1-0.5,0.3-0.5,0.8c0,0.5,0,0.8,0,2.8v0.3
			c0,0.1,0,0.1,0.1,0.1h5.6c0,0,0.1,0,0.1-0.1l0,0v-3.1c0.1-0.4-0.2-0.7-0.6-0.8c-0.1,0-0.3,0-0.5,0c-0.1,0-0.1,0-0.1-0.1
			c0-0.1,0.1-0.1,0.2-0.1h2.8c0.1,0,0.2,0,0.2,0.1c0,0.1-0.1,0.1-0.1,0.1c-0.1,0-0.2,0-0.3,0c-0.3,0.1-0.5,0.3-0.5,0.8s0,0.8,0,2.8
			L89.6,102.4z"/>
		<path class="st0" d="M96.3,96.6c0.2-0.4,0.2-0.5,0.3-0.5s0.1,0.1,0.3,0.5s2.3,5.9,3.1,7.9c0.5,1.2,0.8,1.4,1.1,1.5
			c0.2,0.1,0.4,0.1,0.5,0.1c0.1,0,0.1,0,0.1,0.1s-0.1,0.1-0.3,0.1h-2.1c-0.2,0-0.4,0-0.4-0.1c0,0,0-0.1,0-0.1c0,0,0,0,0,0h0.1
			c0.1,0,0.2-0.1,0.1-0.4l-1.2-3.2c0-0.1-0.1-0.1-0.1-0.1H95c-0.1,0-0.1,0-0.1,0.1l-0.8,2.4c-0.1,0.3-0.2,0.6-0.2,0.9
			c0,0.3,0.3,0.4,0.5,0.4h0.1c0.1,0,0.1,0,0.1,0.1s-0.1,0.1-0.2,0.1h-2.5c-0.2,0-0.2,0-0.2-0.1s0.1-0.1,0.1-0.1h0.4
			c0.6-0.1,0.9-0.6,1.1-1.2L96.3,96.6z M97.7,101.9C97.8,101.9,97.8,101.9,97.7,101.9l-1.2-3.7c-0.1-0.2-0.1-0.2-0.2,0l-1.2,3.6v0.1
			L97.7,101.9z"/>
		<path class="st0" d="M104.2,104.4c0,1.1,0.2,1.4,0.5,1.6c0.2,0.1,0.4,0.1,0.7,0.1c0.1,0,0.1,0,0.1,0.1s-0.1,0.1-0.2,0.1h-2.7
			c-0.1,0-0.2,0-0.2-0.1s0-0.1,0.1-0.1c0.2,0,0.4,0,0.5-0.1c0.3-0.1,0.4-0.5,0.4-1.7v-7.6c0-0.5,0-0.7,0.2-0.7s0.3,0.3,0.5,0.4
			s2.2,2.3,4.2,4.5c1.3,1.4,2.8,3,3.1,3.4l-0.2-6.7c0-0.9-0.1-1.2-0.5-1.3c-0.2,0-0.4-0.1-0.7-0.1c-0.1,0-0.1,0-0.1-0.1
			s0.1-0.1,0.3-0.1h2.5c0.2,0,0.2,0,0.2,0.1s-0.1,0.1-0.2,0.1h-0.3c-0.4,0.1-0.5,0.4-0.5,1.2v7.7c0,0.9,0,0.9-0.1,0.9
			s-0.3-0.1-1-0.8c-0.2-0.1-2.1-2.1-3.5-3.6c-1.6-1.7-3-3.3-3.4-3.8L104.2,104.4z"/>
		<path class="st0" d="M116.9,104.4c0,1.1,0.2,1.4,0.5,1.6c0.2,0.1,0.4,0.1,0.7,0.1c0.1,0,0.1,0,0.1,0.1s-0.1,0.1-0.2,0.1h-2.6
			c-0.1,0-0.2,0-0.2-0.1s0-0.1,0.1-0.1c0.2,0,0.4,0,0.5-0.1c0.3-0.1,0.4-0.5,0.4-1.7v-7.6c0-0.5,0-0.7,0.2-0.7s0.3,0.3,0.5,0.4
			s2.2,2.3,4.2,4.5c1.3,1.4,2.8,3,3.2,3.4l-0.1-6.7c0-0.8-0.1-1.1-0.5-1.2c-0.2,0-0.4-0.1-0.7-0.1c-0.1,0-0.1,0-0.1-0.1
			s0.1-0.1,0.3-0.1h2.5c0.1,0,0.2,0,0.2,0.1s-0.1,0.1-0.2,0.1h-0.3c-0.4,0.1-0.5,0.4-0.5,1.2v7.8c0,0.9,0,0.9-0.1,0.9
			s-0.3-0.1-1-0.8c-0.2-0.1-2-2.1-3.4-3.6c-1.6-1.7-3-3.3-3.5-3.8L116.9,104.4z"/>
		<path class="st0" d="M129.2,100v-2.8c0.1-0.4-0.2-0.7-0.6-0.8c0,0,0,0,0,0c-0.1,0-0.3,0-0.4,0c-0.1,0-0.1,0-0.1-0.1
			c0-0.1,0.1-0.1,0.2-0.1h4.5c0.2,0,0.4,0,0.6-0.1c0.1,0,0.1-0.1,0.2-0.1c0.1,0,0.1,0.1,0.1,0.1s-0.1,0.2-0.1,0.6
			c0,0.1,0,0.7-0.1,0.9s0,0.2-0.1,0.2s-0.1-0.1-0.1-0.2c0-0.2,0-0.3-0.1-0.5c-0.1-0.2-0.2-0.4-0.9-0.4h-1.8c-0.1,0-0.1,0-0.1,0.1
			v3.6c0,0.1,0,0.1,0.1,0.1h2.1c0.2,0,0.4,0,0.6-0.2c0.1-0.1,0.1-0.2,0.2-0.2c0,0,0.1,0,0.1,0.1s-0.1,0.3-0.1,0.8c0,0.3,0,0.8,0,0.8
			s0,0.3-0.1,0.3s-0.1-0.1-0.1-0.1c0-0.1,0-0.3-0.1-0.4c-0.1-0.2-0.2-0.4-0.7-0.5c-0.3,0-1.7-0.1-1.9-0.1c-0.1,0-0.1,0-0.1,0.1v3.4
			c0,0.9,0.2,1.1,1.6,1.1c0.4,0,0.9,0,1.3-0.1c0.3-0.1,0.5-0.4,0.6-1c0-0.1,0.1-0.2,0.1-0.2c0.1,0,0.1,0.1,0.1,0.2
			c0,0.4-0.1,0.9-0.2,1.3s-0.2,0.4-0.7,0.4c-2,0-2.9-0.1-3.3-0.1h-1.3c-0.1,0-0.2,0-0.2-0.1s0-0.1,0.1-0.1c0.1,0,0.3,0,0.4-0.1
			c0.3-0.1,0.3-0.4,0.4-0.7c0.1-0.6,0.1-1.6,0.1-2.9L129.2,100z"/>
		<path class="st0" d="M136.6,106c-0.2-0.1-0.2-0.1-0.2-0.5c0-0.7,0.1-1.2,0.1-1.4c0-0.2,0-0.2,0.1-0.2s0.1,0,0.1,0.1
			c0,0.2,0,0.3,0,0.5c0.2,0.9,1.1,1.5,2,1.3c1,0.1,1.8-0.7,1.9-1.6v-0.1c0-0.9-0.4-1.4-1.5-2.3l-0.6-0.5c-1.4-1.2-1.7-2-1.7-2.9
			c0-1.4,1.1-2.3,2.7-2.3c0.4,0,0.8,0,1.2,0.1c0.2,0,0.3,0.1,0.5,0.1c0.1,0,0.1,0,0.1,0.1s0,0.5,0,1.4c0,0.2,0,0.3-0.1,0.3
			s-0.1-0.1-0.1-0.2c-0.1-0.2-0.1-0.5-0.2-0.7c-0.1-0.2-0.4-0.7-1.6-0.7c-0.8-0.1-1.6,0.5-1.6,1.4c0,0,0,0,0,0v0.2
			c0,0.8,0.4,1.2,1.6,2.2l0.4,0.3c1.6,1.2,1.9,2,1.9,3.1c0,0.9-0.4,1.7-1.1,2.2c-0.6,0.4-1.3,0.6-2,0.6
			C137.8,106.5,137.2,106.3,136.6,106z"/>
		<path class="st0" d="M145.2,100v-2.8c0.1-0.4-0.2-0.7-0.6-0.8c0,0,0,0,0,0c-0.1,0-0.3,0-0.4,0c-0.1,0-0.1,0-0.1-0.1
			c0-0.1,0.1-0.1,0.2-0.1h2.9c2.2,0,2.7,1.3,2.7,2c-0.1,0.9-0.5,1.8-1.2,2.3c1.3,0.4,2.2,1.5,2.3,2.8c0,1.4-1.1,2.9-3.4,2.9
			c-0.3,0-1.7-0.1-1.8-0.1h-1.3c-0.1,0-0.2,0-0.2-0.1s0-0.1,0.1-0.1c0.1,0,0.3,0,0.4-0.1c0.3-0.1,0.3-0.4,0.4-0.7
			c0.1-0.6,0.1-1.6,0.1-2.9L145.2,100z M146.2,100.3c0,0.1,0,0.1,0.1,0.2c0.3,0,0.5,0,0.8,0c0.7,0,0.9,0,1.2-0.3
			c0.3-0.4,0.5-0.8,0.5-1.3c0-1.1-0.5-2.3-1.8-2.3c-0.2,0-0.4,0-0.6,0.1c-0.1,0-0.1,0.1-0.1,0.1L146.2,100.3z M146.2,101.7v2.9
			c0,0.6,0,0.8,0.4,1c0.4,0.1,0.8,0.2,1.2,0.2c1,0.1,1.8-0.7,1.9-1.6c0,0,0,0,0,0v-0.2c0-1-0.4-2-1.3-2.7c-0.3-0.2-0.7-0.4-1.1-0.4
			h-1c0,0-0.1,0-0.1,0.1L146.2,101.7z"/>
		<path class="st0" d="M153.7,100v-2.8c0.1-0.4-0.2-0.7-0.6-0.8c0,0,0,0,0,0c-0.1,0-0.3,0-0.4,0c-0.1,0-0.1,0-0.1-0.1l0,0
			c0-0.1,0.1-0.1,0.2-0.1h2.8c0.1,0,0.2,0,0.2,0.1c0,0-0.1,0.1-0.1,0.1l0,0c-0.1,0-0.2,0-0.3,0c-0.4,0-0.5,0.3-0.5,0.8s0,0.8,0,2.9
			v1.8c0,1.9,0.4,2.7,1,3.3c0.5,0.5,1.3,0.8,2,0.7c0.8,0,1.6-0.4,2.1-1c0.6-1,0.9-2.1,0.8-3.2v-4.5c0.1-0.4-0.2-0.7-0.6-0.8
			c0,0,0,0,0,0c-0.1,0-0.3,0-0.4,0c-0.1,0-0.1,0-0.1-0.1c0-0.1,0.1-0.1,0.2-0.1h2.5c0.1,0,0.2,0,0.2,0.1c0,0.1,0,0.1-0.1,0.1l0,0
			c-0.1,0-0.2,0-0.3,0c-0.4,0.1-0.5,0.3-0.5,0.8s0,0.8,0,2.9v1.4c0,1.4-0.2,3-1.2,3.9c-0.7,0.7-1.7,1-2.7,1c-1,0.1-2.1-0.3-2.9-0.9
			c-0.9-0.9-1.3-2.2-1.1-3.5L153.7,100z"/>
		<path class="st0" d="M165.6,100v-2.8c0.1-0.4-0.2-0.7-0.6-0.8c0,0,0,0,0,0c-0.1,0-0.3,0-0.4,0c-0.1,0-0.1,0-0.1-0.1l0,0
			c0-0.1,0.1-0.1,0.2-0.1h3.1c0.8-0.1,1.7,0.1,2.4,0.6c0.6,0.4,0.9,1.1,0.9,1.8c-0.1,1.2-0.6,2.3-1.6,3c1.1,1.4,2,2.6,2.8,3.4
			c0.4,0.5,0.9,0.8,1.6,0.9c0.2,0,0.3,0,0.5,0c0.1,0,0.1,0,0.1,0.1s-0.1,0.1-0.3,0.1h-0.9c-0.5,0-1,0-1.4-0.2
			c-0.7-0.5-1.3-1.2-1.8-1.9c-0.6-0.7-1.2-1.6-1.4-2c0-0.1-0.1-0.1-0.2-0.1h-1.6c-0.1,0-0.1,0-0.1,0.1v0.3c0,1.3,0,2.4,0.1,2.9
			s0.1,0.7,0.5,0.7c0.2,0,0.4,0,0.6,0.1c0.1,0,0.1,0,0.1,0.1s-0.1,0.1-0.2,0.1h-2.8c-0.1,0-0.2,0-0.2-0.1s0-0.1,0.1-0.1
			c0.1,0,0.3,0,0.4-0.1c0.3,0,0.3-0.3,0.4-0.7s0.1-1.6,0.1-2.9L165.6,100z M166.6,101.2c0,0.1,0,0.1,0.1,0.2
			c0.4,0.2,0.9,0.2,1.4,0.2c0.4,0,0.7-0.1,1-0.2c0.6-0.5,0.8-1.2,0.8-2c0-1.7-0.9-2.7-2.3-2.7c-0.3,0-0.6,0-0.9,0.1
			c-0.1,0-0.1,0.1-0.1,0.2L166.6,101.2z"/>
		<path class="st0" d="M182,102.8c0-1.1-0.1-1.2-0.6-1.4H181c-0.1,0-0.1,0-0.1-0.1s0.1-0.1,0.2-0.1c0.6,0,1.4,0,1.5,0s0.9,0,1.3,0
			c0.1,0,0.2,0,0.2,0.1s-0.1,0.1-0.1,0.1h-0.3c-0.4,0.1-0.5,0.3-0.5,0.8s0,0.8,0,1.4v1.5c0,0.6,0,0.6-0.2,0.7
			c-0.9,0.4-1.8,0.6-2.8,0.6c-1.6,0.1-3.1-0.4-4.4-1.4c-1-1-1.6-2.4-1.6-3.8c-0.1-1.7,0.8-3.4,2.2-4.3c1.1-0.6,2.3-0.9,3.5-0.8
			c0.7,0,1.3,0.1,2,0.2c0.4,0.1,0.7,0.1,1.1,0.1c0.1,0,0.2,0.1,0.2,0.1c-0.1,0.6-0.1,1.3-0.1,1.9c0,0.2,0,0.3-0.1,0.3
			s-0.1-0.1-0.1-0.2c0-0.3-0.1-0.6-0.3-0.9c-0.3-0.5-1.4-1.1-3.1-1.1c-2.1-0.2-3.9,1.3-4.1,3.3c0,0,0,0,0,0c0,0.3,0,0.6,0,0.9
			c0,1.3,0.5,2.6,1.4,3.6c0.9,0.9,2.2,1.4,3.5,1.4c0.5,0,1-0.1,1.5-0.3c0.2-0.1,0.3-0.3,0.3-0.5L182,102.8z"/>
		<g id="Shield">
			<g id="Silver">
				<path id="Silver_Colour" class="st2" d="M218.2,62.2h-21.5c-0.4,2-0.6,4-0.6,6.1c0,9.8,4.7,18.1,11.4,21.6
					c6.7-3.5,11.4-11.9,11.4-21.7C218.9,66.2,218.7,64.2,218.2,62.2L218.2,62.2z"/>
				
					<radialGradient id="Silver_Shade_1_" cx="210.8" cy="1341.4518" r="12.67" gradientTransform="matrix(1 0 0 2.44 -3.13 -3193.9399)" gradientUnits="userSpaceOnUse">
					<stop  offset="0" style="stop-color:#FFFFFF"/>
					<stop  offset="0.1" style="stop-color:#F3F3F3"/>
					<stop  offset="0.27" style="stop-color:#D3D3D2"/>
					<stop  offset="0.51" style="stop-color:#9E9E9E"/>
					<stop  offset="0.79" style="stop-color:#575756"/>
					<stop  offset="1" style="stop-color:#1D1D1B"/>
				</radialGradient>
				<path id="Silver_Shade" class="st3" d="M218.2,62.2h-21.5c-0.4,2-0.6,4-0.6,6.1c0,9.8,4.7,18.1,11.4,21.6
					c6.7-3.5,11.4-11.9,11.4-21.7C218.9,66.2,218.7,64.2,218.2,62.2L218.2,62.2z"/>
			</g>
			<g id="Waves">
				<g id="Wave_Colour">
					<path class="st4" d="M197.2,74.7c1.1,0,2.2,0.4,3.1,0.9c0.6,0.4,1.4,0.6,2.1,0.6c0.7,0,1.4-0.2,2-0.6c1.9-1.2,4.3-1.2,6.1,0
						c0.6,0.4,1.3,0.6,2,0.6c0.7,0,1.5-0.3,2.1-0.6c1-0.5,2-0.9,3.1-0.9c0.2-0.8,0.3-1.7,0.4-2.5h-21.5
						C196.9,73,197.1,73.8,197.2,74.7z"/>
					<path class="st4" d="M209.4,83.7c-1.1-0.8-2.6-0.8-3.7,0c-1,0.6-2.1,1-3.2,1h-0.6c1.5,2,3.4,3.6,5.6,4.8
						c2.2-1.2,4.1-2.8,5.6-4.8h-0.5C211.4,84.7,210.3,84.3,209.4,83.7z"/>
					<path class="st4" d="M212.5,78.7c-1.1,0-2.2-0.3-3.2-0.9c-0.6-0.4-1.2-0.6-1.9-0.6c-0.7,0-1.3,0.3-1.9,0.6c-1,0.6-2.1,1-3.2,1
						c-1.1,0-2.2-0.3-3.2-0.9c-0.4-0.2-0.8-0.4-1.3-0.5c0.4,1.3,1,2.7,1.7,3.9l0.7,0.3c0.6,0.4,1.3,0.6,2.1,0.7c0.7,0,1.4-0.3,2-0.7
						c1.9-1.2,4.3-1.2,6.1,0c0.6,0.4,1.3,0.6,2,0.7c0.7,0,1.5-0.3,2.1-0.7l0.7-0.3c0.7-1.3,1.2-2.6,1.7-3.9
						c-0.4,0.1-0.9,0.3-1.3,0.5C214.8,78.4,213.7,78.7,212.5,78.7z"/>
				</g>
				<g id="Wave_-_Shade">
					
						<radialGradient id="SVGID_1_" cx="-370.5609" cy="-6499.1406" r="39.29" gradientTransform="matrix(0.42 0 0 0.42 363.8 2811.2903)" gradientUnits="userSpaceOnUse">
						<stop  offset="0" style="stop-color:#FFFFFF"/>
						<stop  offset="1" style="stop-color:#3C3C3B"/>
					</radialGradient>
					<path class="st5" d="M197.2,74.7c1.1,0,2.2,0.4,3.1,0.9c0.6,0.4,1.4,0.6,2.1,0.6c0.7,0,1.4-0.2,2-0.6c1.9-1.2,4.3-1.2,6.1,0
						c0.6,0.4,1.3,0.6,2,0.6c0.7,0,1.5-0.3,2.1-0.6c1-0.5,2-0.9,3.1-0.9c0.2-0.8,0.3-1.7,0.4-2.5h-21.5
						C196.9,73,197.1,73.8,197.2,74.7z"/>
					
						<radialGradient id="SVGID_2_" cx="-1167.4" cy="-5757.25" r="30.87" gradientTransform="matrix(1 0 0 1 -3.13 -1863.76)" gradientUnits="userSpaceOnUse">
						<stop  offset="0" style="stop-color:#FFFFFF"/>
						<stop  offset="1" style="stop-color:#3C3C3B"/>
					</radialGradient>
					<path class="st6" d="M209.4,83.7c-1.1-0.8-2.6-0.8-3.7,0c-1,0.6-2.1,1-3.2,1h-0.6c1.5,2,3.4,3.6,5.6,4.8
						c2.2-1.2,4.1-2.8,5.6-4.8h-0.5C211.4,84.7,210.3,84.3,209.4,83.7z"/>
					
						<radialGradient id="SVGID_3_" cx="-1167.4" cy="-5759.8301" r="34.88" gradientTransform="matrix(1 0 0 1 -3.13 -1863.76)" gradientUnits="userSpaceOnUse">
						<stop  offset="0" style="stop-color:#FFFFFF"/>
						<stop  offset="1" style="stop-color:#3C3C3B"/>
					</radialGradient>
					<path class="st7" d="M212.5,78.7c-1.1,0-2.2-0.3-3.2-0.9c-0.6-0.4-1.2-0.6-1.9-0.6c-0.7,0-1.3,0.3-1.9,0.6c-1,0.6-2.1,1-3.2,1
						c-1.1,0-2.2-0.3-3.2-0.9c-0.4-0.2-0.8-0.4-1.3-0.5c0.4,1.3,1,2.7,1.7,3.9l0.7,0.3c0.6,0.4,1.3,0.6,2.1,0.7c0.7,0,1.4-0.3,2-0.7
						c1.9-1.2,4.3-1.2,6.1,0c0.6,0.4,1.3,0.6,2,0.7c0.7,0,1.5-0.3,2.1-0.7l0.7-0.3c0.7-1.3,1.2-2.6,1.7-3.9
						c-0.4,0.1-0.9,0.3-1.3,0.5C214.8,78.4,213.7,78.7,212.5,78.7z"/>
				</g>
			</g>
			<g id="Gold">
				<path id="Gold_Colour" class="st8" d="M213.6,62.2h-16.8c-0.4,2-0.6,4-0.6,6.1c0,1.3,0.1,2.6,0.2,3.8h22.2
					c0.2-1.3,0.2-2.5,0.2-3.8c0-2-0.2-4.1-0.6-6.1H213.6z"/>
				
					<radialGradient id="Gold_Shade_1_" cx="214.58" cy="1929.0699" r="25.57" gradientTransform="matrix(1 0 0 1 -3.13 -1863.76)" gradientUnits="userSpaceOnUse">
					<stop  offset="0" style="stop-color:#FFFFFF"/>
					<stop  offset="1" style="stop-color:#946100"/>
				</radialGradient>
				<path id="Gold_Shade" class="st9" d="M213.6,62.2h-16.8c-0.4,2-0.6,4-0.6,6.1c0,1.3,0.1,2.6,0.2,3.8h22.2
					c0.2-1.3,0.2-2.5,0.2-3.8c0-2-0.2-4.1-0.6-6.1H213.6z"/>
			</g>
			<g id="Shadow_-_Inner" class="st10">
				<path class="st11" d="M218.2,62.2h-21.5c-0.4,2-0.6,4-0.6,6.1c0,9.8,4.7,18.1,11.4,21.6c6.7-3.5,11.4-11.9,11.4-21.7
					C218.9,66.2,218.7,64.2,218.2,62.2L218.2,62.2z"/>
				<g class="st12">
					<path class="st13" d="M218.2,62.2h-21.5c-0.4,2-0.6,4-0.6,6.1c0,9.8,4.7,18.1,11.4,21.6c6.7-3.5,11.4-11.9,11.4-21.7
						C218.9,66.2,218.7,64.2,218.2,62.2L218.2,62.2z"/>
				</g>
			</g>
			<g id="Book_Cog">
				<path class="st14" d="M204.6,64.7c0.2,0,0.4,0,0.5,0c0.2,0,0.4,0,0.6,0c0.5-0.3,1.1-0.5,1.8-0.5c0.6,0,1.2,0.2,1.7,0.5
					c0.2,0,0.4,0.1,0.7,0.1c0.2,0,0.3,0,0.5,0l-0.1-0.1l0.3-0.3l-0.6-0.5l-0.3,0.3c-0.2-0.1-0.3-0.2-0.5-0.3l0.1-0.4l-0.7-0.3
					l-0.1,0.4c-0.2,0-0.4-0.1-0.6-0.1V63h-0.8v0.4c-0.2,0-0.4,0.1-0.6,0.1l-0.1-0.4l-0.7,0.3l0.1,0.4c-0.2,0.1-0.3,0.2-0.5,0.3
					l-0.3-0.3l-0.6,0.5L204.6,64.7L204.6,64.7z"/>
				<path class="st14" d="M208.9,70.1c-0.4,0.2-0.9,0.3-1.4,0.3c-0.5,0-0.9-0.1-1.4-0.3h-1.6l-0.2,0.2l0.6,0.5l0.3-0.3
					c0.2,0.1,0.3,0.2,0.5,0.3l-0.1,0.4l0.7,0.3l0.1-0.4c0.2,0.1,0.4,0.1,0.6,0.1v0.4h0.8v-0.4c0.2,0,0.4,0,0.6-0.1l0.1,0.4l0.7-0.3
					l-0.1-0.4c0.2-0.1,0.4-0.2,0.5-0.3l0.3,0.3l0.6-0.5l-0.1-0.2H208.9z"/>
				<path class="st14" d="M203.3,70h3.8c0,0.1,0.3,0.2,0.4,0.2s0.4-0.1,0.4-0.2h3.8c0.1,0,0.1,0,0.1-0.1c0,0,0,0,0,0v-4.7
					c0-0.1-0.1-0.1-0.1-0.1h-0.6l-0.2-0.2l0,0c-0.7,0.2-1.4,0.2-2.1,0c-0.3-0.1-0.5-0.1-0.8-0.1c-0.3,0.2-0.8,0.2-1.2,0
					c-0.3,0-0.5,0-0.7,0.1c-0.7,0.2-1.4,0.2-2.1,0l0,0L204,65h-0.6c-0.1,0-0.1,0-0.1,0.1c0,0,0,0,0,0l0,0v4.7
					C203.2,69.9,203.2,69.9,203.3,70z M211,65l0.5,0.4v3.9l-0.5-0.5V65z M211.4,69.5c-0.7,0.2-1.4,0.2-2.1,0c-0.9-0.2-1.2-0.1-1.4,0
					l-0.2-0.6c0.1-0.1,0.2-0.1,0.4-0.1c0.3,0,0.6,0.1,0.8,0.2c0.4,0.1,0.7,0.1,1.1,0.2c0.3,0,0.7,0,1-0.1L211.4,69.5z M207.6,65
					c0,0,0.1-0.2,0.5-0.2c0.2,0,0.5,0,0.7,0.1c0.3,0.1,0.7,0.2,1.1,0.2c0.3,0,0.7,0,1-0.1v3.8c-0.3,0.1-0.7,0.1-1,0.1
					c-0.3,0-0.7-0.1-1-0.2c-0.3-0.1-0.6-0.1-0.9-0.2c-0.1,0-0.3,0-0.4,0.1L207.6,65z M204.2,65c0.3,0.1,0.7,0.1,1,0.1
					c0.4,0,0.7,0,1.1-0.2c0.2-0.1,0.5-0.1,0.7-0.1c0.4,0,0.5,0.1,0.5,0.2v3.6c-0.1,0-0.2-0.1-0.4-0.1c-0.3,0-0.6,0.1-0.9,0.2
					c-0.3,0.1-0.7,0.1-1,0.2c-0.3,0-0.7,0-1-0.1L204.2,65z M204.2,68.9c0.7,0.2,1.4,0.2,2.1,0c0.3-0.1,0.5-0.1,0.8-0.2
					c0.1,0,0.3,0,0.4,0.1l-0.2,0.6c-0.1-0.1-0.5-0.2-1.4,0c-0.7,0.2-1.4,0.2-2.1,0L204.2,68.9z M203.6,65.4l0.4-0.4v3.8l-0.4,0.5
					V65.4z"/>
				<polygon class="st11" points="211,65 211.4,65.4 211.4,69.3 211,68.8 				"/>
				<path class="st15" d="M211.4,69.5c-0.7,0.2-1.4,0.2-2.1,0c-0.9-0.2-1.2-0.1-1.4,0l-0.2-0.6c0.1-0.1,0.2-0.1,0.4-0.1
					c0.3,0,0.6,0.1,0.8,0.2c0.4,0.1,0.7,0.1,1.1,0.2c0.3,0,0.7,0,1-0.1L211.4,69.5z"/>
				
					<linearGradient id="SVGID_4_" gradientUnits="userSpaceOnUse" x1="207.29" y1="1930.5925" x2="210.55" y2="1930.5925" gradientTransform="matrix(1 0 0 1 -3.13 -1863.76)">
					<stop  offset="0" style="stop-color:#F6F6F6"/>
					<stop  offset="0.29" style="stop-color:#ECECEC"/>
					<stop  offset="0.67" style="stop-color:#E3E3E3"/>
					<stop  offset="0.8" style="stop-color:#EBEBEB"/>
					<stop  offset="1" style="stop-color:#FFFFFF"/>
				</linearGradient>
				<path class="st16" d="M204.1,64.9c0.3,0.1,0.7,0.1,1,0.1c0.4,0,0.7-0.1,1.1-0.2c0.2-0.1,0.5-0.1,0.7-0.1c0.2,0,0.4,0,0.5,0.2
					v3.7c-0.1,0-0.3-0.1-0.4-0.1c-0.3,0-0.6,0.1-0.9,0.2c-0.3,0.1-0.7,0.1-1,0.2c-0.3,0-0.7,0-1-0.1L204.1,64.9z"/>
				<path class="st17" d="M204.1,68.9c0.7,0.2,1.4,0.2,2.1,0c0.3-0.1,0.5-0.1,0.8-0.1c0.1,0,0.3,0,0.4,0.1l-0.2,0.6
					c-0.2-0.1-0.5-0.2-1.4,0c-0.7,0.2-1.4,0.2-2.1,0L204.1,68.9z"/>
				<polygon class="st18" points="203.5,65.4 204,65 204,68.8 203.5,69.3 				"/>
				
					<linearGradient id="SVGID_5_" gradientUnits="userSpaceOnUse" x1="210.71" y1="1930.5951" x2="213.96" y2="1930.5951" gradientTransform="matrix(1 0 0 1 -3.13 -1863.76)">
					<stop  offset="0" style="stop-color:#C6C6C6"/>
					<stop  offset="1.000000e-02" style="stop-color:#C9C9C9"/>
					<stop  offset="6.000000e-02" style="stop-color:#E1E1E1"/>
					<stop  offset="0.13" style="stop-color:#F2F2F2"/>
					<stop  offset="0.19" style="stop-color:#FCFCFC"/>
					<stop  offset="0.28" style="stop-color:#FFFFFF"/>
				</linearGradient>
				<path class="st19" d="M207.6,65c0,0,0.1-0.2,0.5-0.2c0.2,0,0.5,0,0.7,0.1c0.7,0.2,1.4,0.2,2.1,0v3.8c-0.3,0.1-0.7,0.1-1,0.1
					c-0.3,0-0.7-0.1-1-0.2c-0.3-0.1-0.6-0.1-0.9-0.2c-0.1,0-0.3,0-0.4,0.1V65z"/>
			</g>
			<g id="Shield_Rim">
				<path class="st2" d="M196.4,61.7l-0.1,0.4c-0.4,2-0.6,4.1-0.6,6.2c0,4.7,1.1,9.3,3.2,13.4c1.9,3.7,4.8,6.7,8.4,8.7l0.2,0.1
					l0.2-0.1c3.6-2,6.5-5,8.4-8.7c2.2-4.1,3.3-8.7,3.3-13.4c0-2.1-0.2-4.2-0.6-6.2l-0.1-0.4L196.4,61.7z M196.8,62.2h21.4
					c0.4,2,0.6,4,0.6,6.1c0,9.8-4.7,18.1-11.4,21.6c-6.7-3.5-11.4-11.9-11.4-21.6C196.1,66.3,196.4,64.2,196.8,62.2L196.8,62.2z"/>
				<path class="st20" d="M196.1,68.3c0-2,0.2-4.1,0.6-6.1l0,0l-0.4-0.5l-0.1,0.4c-0.4,2-0.6,4.1-0.6,6.2c0,4.7,1.1,9.2,3.2,13.4
					c1.9,3.7,4.8,6.7,8.4,8.7l0.2,0.1v-0.5C200.9,86.4,196.1,78,196.1,68.3z"/>
				<path class="st20" d="M218.2,62.2h-2.5c-0.6,0-1.1-0.2-1.6-0.5l0,0c0,0.3-0.3,0.5-0.6,0.5h-12.2c-0.3,0-0.5-0.2-0.6-0.5l0,0
					c-0.5,0.3-1,0.5-1.6,0.5h-2.5c-0.4,2-0.6,4-0.6,6.1c0,9.8,4.7,18.1,11.4,21.6c6.7-3.5,11.4-11.9,11.4-21.7
					C218.9,66.3,218.6,64.2,218.2,62.2z M211.8,86.2c-1.3,1.3-2.7,2.4-4.3,3.3c-1.6-0.9-3-2-4.3-3.3c-1.4-1.5-2.6-3.1-3.5-4.9
					c-2.1-4-3.2-8.5-3.1-13c0-1.9,0.2-3.8,0.6-5.7h20.8c0.4,1.9,0.5,3.8,0.6,5.7c0,4.5-1,9-3.1,13C214.3,83,213.2,84.7,211.8,86.2
					L211.8,86.2z"/>
				<path class="st2" d="M196.8,62.2L196.8,62.2c-0.4,2-0.6,4-0.6,6.1c0,9.8,4.7,18.1,11.4,21.6v-0.5c-1.6-0.9-3-2-4.3-3.3
					c-1.4-1.5-2.6-3.1-3.5-4.9c-2.1-4-3.2-8.5-3.1-13c0-1.9,0.2-3.8,0.6-5.7L196.8,62.2z"/>
			</g>
			<g id="Baton">
				<g id="Body">
					<path class="st2" d="M201.4,62.2c-0.3,0-0.5-0.3-0.5-0.7c0-0.3,0.2-0.5,0.5-0.5h12.2c0.3,0,0.5,0.3,0.5,0.7
						c0,0.3-0.2,0.5-0.5,0.5H201.4z"/>
					<polygon class="st4" points="205.4,62.2 203.7,62.2 203.2,61.1 204.9,61.1 					"/>
					<polygon class="st4" points="209.7,62.2 208,62.2 207.4,61.1 209.1,61.1 					"/>
					<path class="st4" d="M214.2,61.6c0-0.3-0.3-0.6-0.6-0.6l0,0h-1.9l0.5,1.1h1.4C213.9,62.2,214.2,61.9,214.2,61.6z"/>
				</g>
				<g id="Lowlight">
					<path class="st20" d="M213.7,61.9h-12.5c-0.2,0-0.3-0.1-0.4-0.2c0,0.3,0.3,0.5,0.6,0.5h12.2c0.3,0,0.5-0.2,0.6-0.5
						C214.1,61.8,213.9,61.9,213.7,61.9z"/>
				</g>
				<g id="Highlight" class="st21">
					<path class="st11" d="M201.2,61.4h12.5c0.2,0,0.3,0.1,0.4,0.2c0-0.3-0.2-0.5-0.5-0.5h-12.3c-0.3,0-0.5,0.2-0.5,0.5
						C200.9,61.5,201.1,61.4,201.2,61.4z"/>
				</g>
			</g>
		</g>
		<g id="Kudu">
			<g id="Kudu_Head">
				<path class="st22" d="M212.9,51.3c-0.4,0.1-0.8,0.2-1.1,0.4l-0.1,0.1h-0.1c-0.8,0.2-1.4,0.7-1.7,1.5v0.1
					c-0.1-0.1-0.2-0.2-0.4-0.2l-1.7-0.4h-0.6l-1.6,0.4c-0.2,0.1-0.3,0.2-0.4,0.2v-0.1c-0.2-0.8-0.9-1.3-1.7-1.5h-0.1l0,0l-0.1-0.1
					c-0.3-0.2-0.7-0.4-1.1-0.4c-0.1,0-0.2,0-0.2,0.2c-0.2,1.4,0.5,2.7,1.7,3.4c0.3,0.1,0.7,0.2,1.1,0.2h0.1c0,0.5,0.2,1,0.4,1.5l0,0
					c-0.1,1.5-0.4,3-0.8,4.5h6c-0.4-1.5-0.7-3-0.8-4.5l0,0c0.2-0.5,0.4-1,0.4-1.5h0.2c0.3,0,0.7,0,1-0.2c1.1-0.6,1.7-1.7,1.7-3.4
					C213,51.4,213,51.3,212.9,51.3z"/>
				<path class="st11" d="M208,60.7v-0.2c-0.2,0.1-0.4,0.1-0.6,0.1c-0.2,0-0.4,0-0.6-0.1v0.2l0,0l0.1,0.5h0.9L208,60.7L208,60.7z"/>
				<path class="st23" d="M210.3,54.8c0.3,0,0.6,0,0.9-0.1c1-0.5,1.6-1.6,1.5-2.8c0-0.2-0.1-0.2-0.2-0.2c-0.5,0.1-1,0.3-1.4,0.6
					c-0.2,0.4-0.4,0.7-0.5,1.1c-0.1,0.3-0.2,0.5-0.4,0.8v0.3H210c-0.2,0-0.4,0.1-0.6,0.2c0,0.1,0,0.2-0.1,0.3l-0.2,0.4l-0.3,0.4
					c-0.6,0.7-1.7,0.8-2.4,0.2c-0.1-0.1-0.2-0.1-0.2-0.2l-0.4-0.3l-0.2-0.4c-0.1-0.1-0.1-0.2-0.1-0.3c-0.2-0.1-0.4-0.2-0.6-0.2h-0.2
					v-0.3c-0.1-0.2-0.3-0.5-0.4-0.8c-0.1-0.4-0.3-0.8-0.5-1.1c-0.1-0.1-0.3-0.2-0.5-0.3c-0.3-0.2-0.6-0.3-1-0.3
					c-0.1,0-0.2,0-0.2,0.2c-0.1,1.1,0.5,2.2,1.5,2.7c0.3,0.1,0.6,0.1,0.9,0.1h0.2V55c0.1,0.5,0.2,1,0.4,1.5l0,0l1,2.7l0,0
					c0-0.3-0.2-1.3-0.3-1.6s0.3-0.4,0.3-0.6c0-0.7,0.5-0.4,1.2-0.4s1.2-0.3,1.2,0.4c0,0.1,0.4,0.2,0.3,0.6c0,0,0,0,0,0.1v0.2l0,0
					v0.4c0,0,0,0,0,0.1v0.3l0,0c-0.1,0.3-0.1,0.5-0.1,0.7l1-2.7l0,0c0.2-0.5,0.4-1,0.4-1.5L210.3,54.8L210.3,54.8z"/>
				<path class="st24" d="M208.3,60l-0.1,0.1l0,0H208h-0.9h-0.2l0,0l-0.2-0.1l0,0c0,0.2,0.1,0.3,0.3,0.4c0.2,0.1,0.4,0.1,0.6,0.1
					c0.2,0,0.4,0,0.6-0.1C208.3,60.4,208.4,60.2,208.3,60L208.3,60z"/>
				<path class="st25" d="M208.1,58.8c0-0.6,0.5-1.5,0.5-1.8c0-0.7-0.5-0.4-1.2-0.4s-1.2-0.3-1.2,0.4c0,0.3,0.5,1.2,0.5,1.8H208.1z"
					/>
				<path class="st11" d="M208.6,55.3c-0.7,0.7-0.9,0.7-1.1,0.7l0,0c-0.2,0-0.5,0-1.1-0.7c-0.2-0.2-0.5-0.4-0.8-0.6
					c0,0.1,0.1,0.2,0.1,0.3l0.1,0.4l0.4,0.3c0.6,0.7,1.7,0.8,2.4,0.2c0.1-0.1,0.2-0.2,0.2-0.2l0.4-0.3l0.2-0.4
					c0.1-0.1,0.1-0.2,0.1-0.3C209.1,54.9,208.9,55.1,208.6,55.3z"/>
				<path class="st26" d="M205,54.6c0.2,0,0.4,0.1,0.6,0.2c0.3,0.1,0.6,0.3,0.8,0.6c0.7,0.7,0.9,0.7,1.1,0.7l0,0
					c0.2,0,0.5,0,1.1-0.7c0.2-0.2,0.5-0.4,0.8-0.6c0.2-0.1,0.4-0.2,0.6-0.2h0.2v-0.3l-0.1,0.1c-0.2,0.1-0.3,0.1-0.5,0.1
					c-0.4,0-0.7-0.2-0.9-0.4c-0.3-0.3-0.7-0.5-1.1-0.6c-0.4,0-0.9,0.2-1.2,0.6c-0.2,0.3-0.6,0.4-0.9,0.4c-0.2,0-0.3-0.1-0.5-0.2
					h-0.1v0.3H205z"/>
				<path class="st27" d="M206.7,59.2c-0.1,0.1-0.3,0.1-0.3,0.2s0.1,0.1,0.2,0.5c0.2,0.1,0.5,0.1,0.7,0.1v-0.3
					C207.1,59.7,206.8,59.5,206.7,59.2z"/>
				<path class="st27" d="M208.3,59.2c0.1,0.1,0.3,0.1,0.3,0.2s-0.1,0.1-0.2,0.5c-0.2,0.1-0.5,0.1-0.7,0.1v-0.3
					C207.9,59.7,208.2,59.5,208.3,59.2z"/>
			</g>
			<g id="Horns">
				<path class="st28" d="M203.9,50c-1.2-0.2-1.4-0.7-1.4-1.3v-0.5c0-0.4,0-0.8,0-1.1l0,0c0-0.4-0.2-0.7-0.5-1
					c-0.6-0.6-2.6-1.5-2.7-2.3c0-0.9,0.1-1.9,0.3-2.8c-0.7,0.9-1,2-0.8,3.1c0.5,1.8,2.1,1.6,2.4,2.7c0.1,0.6,0.1,1.2,0.1,1.8
					c0,0.4,0,0.8,0.1,1.2l0,0c0,0,0,0.1,0.1,0.1c0.1,0.2,0.3,0.4,0.5,0.5c1.1,0.6,3.7,0.8,3.6,2.7c0,0.6,1.6,0.2,1.6-0.4
					C207.1,51.7,205.9,50.3,203.9,50z"/>
				<path class="st29" d="M201.4,49.9C201.4,49.9,201.5,50,201.4,49.9c0.1,0.3,0.3,0.5,0.5,0.6c1.1,0.6,3.7,0.8,3.6,2.6
					c0,0.6,1.6,0.2,1.6-0.4c-1-2.6-5.6-1.4-5.9-3.9C201.3,49.2,201.3,49.6,201.4,49.9L201.4,49.9z"/>
				<path class="st29" d="M202.5,48c0-0.3,0-0.7,0-1l0,0c0-0.4-0.2-0.7-0.5-1c-0.6-0.6-2.6-1.5-2.7-2.3c0-0.9,0.1-1.9,0.3-2.8
					c-0.7,0.9-1,2-0.8,3.1c0.3,0.8,0.9,1.5,1.7,1.8C201.3,46.5,202.5,46.5,202.5,48z"/>
				<path class="st30" d="M199,43.8l0.5,0.3c-0.1-0.1-0.1-0.2-0.2-0.4c0-0.9,0-1.9,0.2-2.8c-0.4,0.5-0.6,1-0.8,1.6
					C198.6,43.3,198.6,43.5,199,43.8z"/>
				<path class="st28" d="M207.8,52.7c0,0.6,1.6,1,1.6,0.4c-0.1-1.9,2.6-2,3.6-2.7c0.2-0.1,0.4-0.3,0.5-0.5v-0.1 M213.5,49.8
					c0.1-0.4,0.1-0.8,0.1-1.2c0-0.6,0-1.2,0.1-1.8c0.3-1.1,1.9-0.9,2.5-2.7c0.2-1.1,0-2.3-0.8-3.1c0.2,0.9,0.3,1.8,0.3,2.7
					c-0.1,0.8-2.1,1.7-2.7,2.3c-0.3,0.3-0.5,0.6-0.5,1l0,0c0,0.4,0,0.8,0,1.1v0.5c0,0.6-0.3,1.1-1.4,1.3c-1.5,0.2-2.8,1.2-3.2,2.7
					L213.5,49.8z"/>
				<path class="st29" d="M213.6,49.9L213.6,49.9c-0.1,0.3-0.3,0.5-0.5,0.6c-1.1,0.6-3.7,0.8-3.6,2.6c0,0.6-1.6,0.2-1.6-0.4
					c1-2.6,5.6-1.4,5.9-3.9C213.8,49.2,213.7,49.6,213.6,49.9C213.6,49.9,213.6,49.9,213.6,49.9z"/>
				<path class="st29" d="M212.5,48c0-0.3,0-0.7,0-1l0,0c0-0.4,0.2-0.7,0.5-1c0.6-0.6,2.6-1.5,2.7-2.3c0.1-0.9,0-1.9-0.3-2.8
					c0.7,0.9,1,2,0.8,3.1c-0.3,0.8-0.9,1.5-1.7,1.8C213.7,46.5,212.5,46.5,212.5,48z"/>
				<path class="st30" d="M216,43.8l-0.4,0.4c0.1-0.1,0.1-0.2,0.2-0.4c0-0.9-0.1-1.9-0.3-2.8c0.4,0.5,0.6,1,0.8,1.6
					C216.4,43.3,216.3,43.5,216,43.8z"/>
			</g>
			<path id="Shadow" class="st31" d="M198.7,42.6L198.7,42.6v-0.1l0,0l0.1-0.1l0,0c0,0,0-0.1,0-0.1l0,0c0,0,0-0.1,0.1-0.1l0,0
				c0-0.1,0-0.1,0.1-0.1l0,0v-0.1l0,0l0.1-0.2l0,0l0.1-0.1l0,0l0.1-0.2l0,0v-0.1l0,0l0.1-0.1l0,0c-0.2,0.9-0.3,1.8-0.3,2.8v0.1l0,0
				v0.1l0,0l0,0l0,0l0,0l0,0c0.8,0.7,1.6,1.3,2.6,1.9c0.3,0.3,0.5,0.6,0.5,1l0,0c0,0,0,0.1,0,0.1l0,0v1.5c0,0.6,0.3,1.1,1.4,1.3
				c1.6,0.1,2.9,1.3,3.3,2.8h0.3c-0.2,1.1-0.2,2.2,0,3.3v0.4c-0.2,0.7-0.2,1.5,0,2.2v2.3h-3c0.4-1.5,0.7-3,0.8-4.5l0,0
				c-0.1-0.5-0.2-1-0.1-1.5h-0.2c-0.3,0-0.7,0-1-0.2c-1.1-0.6-1.7-1.7-1.7-3.4c0-0.2,0.1-0.2,0.2-0.2c0.4,0.1,0.8,0.2,1.1,0.4
				l0.1,0.1h0.1c0.8,0.2,1.4,0.8,1.7,1.5v0.1c0.1-0.1,0.2-0.2,0.4-0.2l0,0c0.1-1.9-2.6-2-3.6-2.7c-0.2-0.1-0.4-0.3-0.5-0.5v-0.1l0,0
				v-0.1l0,0c0,0,0,0,0-0.1l0,0c-0.1-0.3-0.1-0.7-0.1-1c0-0.6,0-1.2-0.1-1.8c-0.1-0.4-0.4-0.7-0.8-0.9l0,0l-0.4-0.2l0,0l-0.2-0.1
				h-0.2l0,0l-0.1-0.1l0,0l-0.1-0.1l0,0l-0.1-0.1l0,0l-0.1-0.1l0,0l-0.1-0.1l0,0l-0.1-0.1l0,0l-0.1-0.1v-0.2l-0.1-0.1v-0.1
				c0-0.1,0-0.1,0-0.2C198.7,43.9,198.6,43.2,198.7,42.6z"/>
			<g id="Black_-_Eyes_Nose">
				<path class="st14" d="M209.5,55.9c0.3,0,0.5-0.2,0.5-0.5c0,0,0,0,0,0l0,0c0-0.2-0.1-0.5-0.4-0.5s-0.3,0.4-0.6,0.7
					c-0.1,0.1-0.2,0.2-0.3,0.2l0,0c0,0,0,0,0,0.1h0.1c0.1,0,0.2-0.2,0.3-0.2S209.3,55.9,209.5,55.9z M209.6,55.7
					c0.1-0.1,0.1-0.2,0.1-0.3c0-0.1,0-0.2-0.1-0.2c-0.1,0,0-0.1,0.1,0c0.1,0.1,0.1,0.2,0.1,0.3C209.8,55.6,209.8,55.8,209.6,55.7
					C209.6,55.8,209.6,55.8,209.6,55.7L209.6,55.7z M209.4,55.5C209.4,55.5,209.4,55.5,209.4,55.5c-0.1-0.1,0-0.1,0-0.1l0,0
					C209.5,55.4,209.5,55.4,209.4,55.5C209.5,55.5,209.5,55.5,209.4,55.5z"/>
				<path class="st11" d="M209.4,55.4C209.4,55.4,209.4,55.4,209.4,55.4c-0.1,0.1,0,0.1,0,0.1l0,0C209.5,55.5,209.5,55.5,209.4,55.4
					C209.5,55.4,209.5,55.4,209.4,55.4z"/>
				<path class="st11" d="M209.7,55.2C209.6,55.2,209.6,55.2,209.7,55.2c0,0.1,0,0.2,0,0.2c0,0.1,0,0.2-0.1,0.2c0,0,0,0.1,0,0.1
					c0.1-0.1,0.2-0.2,0.2-0.3C209.8,55.4,209.8,55.3,209.7,55.2z"/>
				<path class="st14" d="M205.9,55.7c0.1,0,0.3,0.1,0.3,0.2l0,0c0,0,0,0,0.1,0v-0.1c-0.1,0-0.2-0.1-0.3-0.2
					c-0.3-0.3-0.3-0.7-0.6-0.7s-0.4,0.2-0.4,0.4c0,0.3,0.2,0.5,0.5,0.5l0,0C205.7,55.9,205.7,55.7,205.9,55.7z M205.3,55.8
					c-0.1-0.1-0.2-0.2-0.2-0.3c0-0.1,0.1-0.2,0.1-0.3c0.1,0,0.1,0,0.1,0c-0.1,0.1-0.1,0.2-0.1,0.2C205.3,55.5,205.3,55.6,205.3,55.8
					C205.4,55.8,205.4,55.8,205.3,55.8z M205.5,55.4C205.5,55.4,205.5,55.4,205.5,55.4L205.5,55.4L205.5,55.4c0.1-0.1,0.1,0,0.1,0
					C205.6,55.5,205.6,55.5,205.5,55.4C205.5,55.5,205.5,55.5,205.5,55.4L205.5,55.4z"/>
				<path class="st11" d="M205.5,55.4C205.6,55.4,205.6,55.4,205.5,55.4c0.1,0.1,0,0.1,0,0.1C205.5,55.5,205.5,55.5,205.5,55.4
					C205.5,55.4,205.5,55.4,205.5,55.4L205.5,55.4z"/>
				<path class="st11" d="M205.3,55.2C205.4,55.2,205.4,55.2,205.3,55.2c0,0.1,0,0.2,0,0.2c0,0.1,0,0.2,0.1,0.2c0,0,0,0.1-0.1,0.1
					c-0.1-0.1-0.2-0.2-0.2-0.3C205.1,55.4,205.2,55.3,205.3,55.2z"/>
				<path class="st14" d="M207.6,59.7c0.4,0,0.7-0.3,0.7-0.7c0-0.2-0.2-0.3-0.8-0.3s-0.8,0.2-0.8,0.3c0,0.4,0.3,0.6,0.7,0.7v0.3
					c-0.2,0-0.5,0-0.7-0.1l0,0c0.2,0.1,0.5,0.2,0.8,0.2c0.3,0,0.6-0.1,0.8-0.2l0,0c-0.2,0.1-0.5,0.1-0.7,0.1V59.7z"/>
			</g>
		</g>
		<g id="Scroll">
			<path class="st32" d="M212.4,93.7l-0.3-0.6l-0.7,0.4l-0.1-0.2l-0.6-1.1c-2,1.2-4.4,1.2-6.4,0l-0.6,1.1l-0.1,0.2l-0.7-0.4
				l-0.3,0.6v0.2c0.4,0.5,1,0.9,1.7,1.1c2.1,0.7,4.4,0.7,6.5,0c0.7-0.2,1.3-0.5,1.7-1.1C212.4,93.9,212.5,93.8,212.4,93.7
				L212.4,93.7z M207.2,94.8h-0.9c-0.1,0-0.2,0-0.2-0.1v-0.8c0-0.1,0.1-0.1,0.2-0.1h0.8c0.1,0,0.2,0,0.2,0.1s-0.1,0.1-0.2,0.1h-0.7
				v0.2h0.6c0.1,0,0.2,0,0.2,0.1s-0.1,0.1-0.2,0.1h-0.6v0.3h0.7c0.1,0,0.2,0,0.2,0.1S207.3,94.8,207.2,94.8L207.2,94.8z M208.8,93.9
				h-0.3v0.8c0,0.1-0.1,0.1-0.2,0.1s-0.2,0-0.2-0.1v-0.8h-0.3c-0.1,0-0.2,0-0.2-0.1s0.1-0.1,0.2-0.1h1c0.1,0,0.2,0,0.2,0.1
				S208.9,93.9,208.8,93.9L208.8,93.9z"/>
			<path class="st4" d="M196.9,82.5c0,0-0.1-0.1-0.1-0.2l0,0l-2.2,0.9l0.2,0.3c2,3.9,5,7.2,8.6,9.5l1.2-2
				C201.4,89,198.7,86,196.9,82.5z M196.9,85.1c-0.1,0.1-0.3,0-0.5-0.3s-0.2-0.5-0.1-0.6s0.1,0,0.1,0.1s-0.1,0.2,0.1,0.4
				s0.2,0.2,0.2,0.2s0-0.1,0-0.2l-0.1-0.3c-0.1-0.3,0-0.4,0-0.4s0.4,0.1,0.5,0.3s0.2,0.5,0.1,0.6s-0.1,0-0.1-0.1s0.1-0.2-0.1-0.4
				s-0.1-0.2-0.2-0.1s0,0.1,0,0.2l0.1,0.2C197,84.9,196.9,85.1,196.9,85.1L196.9,85.1z M197.7,86.4c-0.1,0.1-0.4-0.1-0.5-0.3
				s-0.2-0.6,0-0.8s0.5-0.1,0.8,0.3s0.2,0.5,0.1,0.6s-0.1,0-0.1-0.1s0.1-0.2-0.1-0.4c-0.1-0.2-0.3-0.2-0.4-0.1l0,0
				c-0.1,0.1-0.2,0.3-0.1,0.4c0,0,0,0,0,0l0,0c0.1,0.2,0.3,0.1,0.4,0.2S197.7,86.3,197.7,86.4L197.7,86.4z M197.7,86.9
				c0-0.1,0-0.2,0-0.2l0.6-0.4c0.1,0,0.1,0,0.2,0.1c0,0.1,0,0.1,0,0.2l-0.6,0.4C197.9,87,197.8,87,197.7,86.9L197.7,86.9z
				 M198.9,87.8l-0.3-0.4l-0.2,0.1l0.4,0.5c0.1,0.1,0.1,0.1,0,0.2s-0.1,0-0.2-0.1l-0.4-0.6c-0.1-0.1-0.1-0.2,0-0.2l0.5-0.4
				c0.1-0.1,0.1,0,0.2,0.1l0.4,0.6c0.1,0.1,0.1,0.1,0,0.2s-0.1,0-0.2-0.1l-0.3-0.4l-0.2,0.1l0.3,0.4c0.1,0.1,0.1,0.1,0,0.2
				S199,87.9,198.9,87.8L198.9,87.8z M200.4,88.8l-0.5,0.5c-0.1,0.1-0.1,0-0.2,0s-0.1-0.1-0.1-0.2l0.1-0.8l0,0l-0.4,0.4
				c-0.1,0-0.1,0-0.2,0c0,0-0.1-0.1,0-0.1c0,0,0,0,0,0l0.5-0.5c0.1-0.1,0.1,0,0.2,0c0,0,0.1,0.1,0.1,0.2l-0.1,0.8l0,0l0.4-0.4
				c0.1,0,0.1,0,0.2,0C200.5,88.7,200.5,88.7,200.4,88.8L200.4,88.8z M202.7,90.6L202.7,90.6c0.1,0.1,0.2,0.1,0.1,0.2l-0.1,0.8
				c0,0,0,0.1,0,0.1h-0.2c0,0-0.1-0.1-0.1-0.1v-0.2l-0.4-0.3l-0.1,0.1c0,0-0.1,0-0.1,0c-0.1-0.1-0.1-0.1-0.1-0.2h0.1l0.7-0.3
				C202.6,90.7,202.7,90.7,202.7,90.6L202.7,90.6z M201.9,90c0.1,0.1,0.1,0.1,0.1,0.2l-0.5,0.6c0,0-0.1,0-0.2,0s-0.1-0.1-0.1-0.2
				l0.5-0.6C201.7,89.9,201.9,89.9,201.9,90L201.9,90z M201.5,89.8c0,0-0.1,0-0.2,0l-0.2-0.2l-0.4,0.5c0,0-0.1,0-0.2,0
				s-0.1-0.1,0-0.2l0.4-0.5l-0.2-0.2c-0.1-0.1-0.1-0.1-0.1-0.2s0.1,0,0.2,0l0.7,0.6C201.5,89.7,201.6,89.8,201.5,89.8L201.5,89.8z"
				/>
			<polygon class="st4" points="202.6,90.8 202.6,90.8 202.2,91 202.5,91.2 			"/>
			<path class="st4" d="M218.1,82.3l-0.1,0.2c-1.8,3.5-4.4,6.4-7.7,8.6l1.2,2.1c3.6-2.4,6.6-5.7,8.6-9.5l0.2-0.3L218.1,82.3
				L218.1,82.3z M213.5,90.8l-0.5,0.4c-0.1,0.1-0.1,0.1-0.2,0l-0.4-0.6c0,0,0-0.1,0.1-0.2c0,0,0.1-0.1,0.2,0c0,0,0,0,0,0l0.4,0.5
				l0.4-0.3c0.1,0,0.1-0.1,0.2,0S213.6,90.7,213.5,90.8z M214.6,89.9c-0.1,0-0.1,0.1-0.1,0l-0.1-0.1l-0.4,0.3v0.2
				c0,0.1,0,0.1-0.1,0.1c-0.1,0-0.1,0.1-0.2,0c0,0,0-0.1,0-0.1l-0.2-0.8c0-0.1,0-0.1,0.1-0.1h0.1c0,0,0.1-0.1,0.2-0.1l0.7,0.3
				c0,0,0.1,0,0.1,0C214.6,89.7,214.6,89.8,214.6,89.9L214.6,89.9z M215.4,89.1l-0.3,0.3c-0.1,0.1-0.1,0.1-0.2,0l-0.5-0.5
				c-0.1-0.1,0-0.1,0-0.2l0.3-0.3c0.2-0.2,0.4-0.3,0.5-0.2s0.1,0.1,0,0.3l0,0c0.1-0.1,0.2-0.1,0.3,0S215.5,88.9,215.4,89.1
				L215.4,89.1z M216.4,88c-0.3,0.4-0.6,0.4-0.8,0.2s-0.2-0.5,0.1-0.8s0.6-0.4,0.8-0.2S216.7,87.6,216.4,88L216.4,88z M217.6,86.3
				c0,0.1-0.1,0.1-0.2,0.1c0,0,0,0,0,0c-0.1-0.1-0.2-0.1-0.3,0c0,0,0,0,0,0l-0.2,0.2l0.2,0.2c0,0,0,0.1,0,0.2S217,87,217,87
				l-0.6-0.4c-0.1-0.1-0.1-0.1,0-0.2l0.3-0.4c0.2-0.3,0.4-0.3,0.5-0.2c0.1,0.1,0.1,0.2,0.1,0.3l0,0c0.1-0.1,0.2-0.1,0.2,0l0,0
				c0.1,0,0.1,0,0.2,0.1C217.6,86.1,217.6,86.2,217.6,86.3L217.6,86.3z M218.4,84.9c0.1,0,0,0.1,0,0.2l-0.4,0.6
				c-0.1,0.1-0.1,0.1-0.2,0.1l-0.6-0.3c-0.1-0.1-0.1-0.1,0-0.2l0.4-0.6c0.1-0.1,0.1-0.1,0.1-0.1s0,0.1,0,0.2l-0.3,0.5l0.2,0.1
				l0.3-0.4c0-0.1,0.1-0.1,0.1-0.1s0,0.1,0,0.2l-0.3,0.4l0.2,0.1l0.3-0.5C218.3,85,218.3,84.8,218.4,84.9L218.4,84.9z"/>
			<path class="st4" d="M215,88.5c-0.1-0.1-0.1,0-0.2,0.1l-0.2,0.2l0.1,0.2l0.2-0.2C215,88.7,215.1,88.6,215,88.5z"/>
			<path class="st4" d="M216.8,86.2l-0.1,0.2l0.2,0.1l0.2-0.2c0.1-0.1,0.1-0.2,0-0.2S216.9,86.1,216.8,86.2z"/>
			<polygon class="st4" points="213.8,89.6 213.9,90 214.2,89.8 213.8,89.6 			"/>
			<path class="st4" d="M215,88.9l-0.2,0.2l0.2,0.2l0.2-0.2c0.1-0.1,0.2-0.2,0.1-0.3S215.1,88.8,215,88.9z"/>
			<path class="st4" d="M216.3,87.4c-0.1-0.1-0.3-0.1-0.4,0.1c0,0,0,0,0,0c-0.2,0.2-0.1,0.4,0,0.5s0.3,0.1,0.5-0.1
				C216.4,87.8,216.4,87.6,216.3,87.4C216.3,87.4,216.3,87.4,216.3,87.4z"/>
			<path class="st32" d="M194.6,81.8c0.2,0.1,0.3,0.3,0.4,0.5c0,0.2,0,0.4-0.2,0.6l0,0l2-0.8h0.1l0.3,0.6c0.3,0,0.6-0.1,0.9-0.3l0,0
				c0.1-0.1,0.1-0.3,0.1-0.4c0-0.3-0.4-0.9-1.9-1.7c-0.7-0.4-1-1.1-0.9-1.9c0,0-0.8,0.5-0.5,2.2v0.1H195c-0.9,0-1.6-0.7-1.6-1.6l0,0
				C193,80.1,193.5,81.3,194.6,81.8z"/>
			<path class="st32" d="M218.5,80.2c-1.4,0.8-1.8,1.4-1.9,1.7c0,0.1,0,0.3,0.1,0.4l0,0l0.1,0.1c0.3,0.1,0.5,0.2,0.8,0.2L218,82h0.1
				l1.9,0.8l0,0c-0.1-0.2-0.2-0.4-0.2-0.6c0.1-0.2,0.2-0.4,0.4-0.5c2-1.2,1.2-2.8,1.2-2.8c0,0.9-0.7,1.6-1.6,1.6c0,0,0,0,0,0h-0.1
				v-0.1c0.3-1.7-0.4-2.2-0.5-2.2C219.6,79.1,219.2,79.8,218.5,80.2z"/>
		</g>
	</g>
</g>
</svg>
